<?xml version="1.0" encoding="UTF-8" standalone="no"?>
<svg
   version="1.0"
   width="332.000000pt"
   height="152.000000pt"
   viewBox="0 0 332.000000 152.000000"
   preserveAspectRatio="xMidYMid meet"
   id="svg5"
   sodipodi:docname="5de48e72637db4d7fc7f6bb526354114.svg"
   inkscape:version="1.3.2 (091e20e, 2023-11-25, custom)"
   xmlns:inkscape="http://www.inkscape.org/namespaces/inkscape"
   xmlns:sodipodi="http://sodipodi.sourceforge.net/DTD/sodipodi-0.dtd"
   xmlns="http://www.w3.org/2000/svg"
   xmlns:svg="http://www.w3.org/2000/svg">
  <defs
     id="defs5" />
  <sodipodi:namedview
     id="namedview5"
     pagecolor="#ffffff"
     bordercolor="#000000"
     borderopacity="0.25"
     inkscape:showpageshadow="2"
     inkscape:pageopacity="0.0"
     inkscape:pagecheckerboard="0"
     inkscape:deskcolor="#d1d1d1"
     inkscape:document-units="pt"
     inkscape:zoom="1.5540715"
     inkscape:cx="220.71057"
     inkscape:cy="101.34669"
     inkscape:window-width="1920"
     inkscape:window-height="1051"
     inkscape:window-x="-9"
     inkscape:window-y="-9"
     inkscape:window-maximized="1"
     inkscape:current-layer="g6" />
  <metadata
     id="metadata1">
Created by potrace 1.16, written by Peter Selinger 2001-2019
</metadata>
  <g
     transform="matrix(0.05009599,0,0,-0.04480108,12.11742,148.93643)"
     fill="#000000"
     stroke="none"
     id="g5"
     inkscape:transform-center-x="-28.473593"
     inkscape:transform-center-y="14.478098">
    <g
       id="g7"
       transform="matrix(0.50853848,0,0,0.57357239,544.44438,1643.5355)">
      <path
         d="m 2553,1320 c -42,-10 -73,-30 -153,-100 -136,-117 -134,-117 -221,-64 -40,25 -65,35 -81,31 -71,-18 -481,-397 -429,-397 5,0 58,36 118,79 222,163 239,174 280,173 23,0 68,-14 113,-36 126,-61 154,-50 234,96 25,47 54,92 62,99 11,9 75,15 218,20 153,5 214,11 256,25 l 55,18 -100,7 c -55,3 -134,15 -175,26 -100,27 -139,32 -177,23 z"
         id="path2" />
      <g
         id="g6">
        <path
           d="m 2131,1505 c -18,-8 -70,-50 -115,-93 -130,-126 -153,-134 -222,-82 -21,16 -50,30 -63,30 -35,0 -116,-65 -274,-219 -127,-124 -143.5657,-170.86984 -174,-207 0.7697,-1.15454 11.9068,6.13296 30.1054,19.46858 C 1342.195,974.78486 1389.327,1011.5543 1441,1054 c 84,69 167,132 185,141 53,25 93,19 159,-25 119,-79 165,-61 222,89 15,41 40,87 55,103 l 27,29 138,-6 c 150,-8 231,4 322,47 l 46,22 -104,7 c -57,4 -134,17 -172,28 -96,30 -148,34 -188,16 z"
           id="path1"
           sodipodi:nodetypes="cccsccssccccccccccc" />
        <path
           d="M 690,1040 C 548,1002 417,917 390,845 372,798 378,744 404,713 c 33,-39 78,-57 230,-93 153,-36 192,-53 212,-92 13,-26 13,-32 -6,-76 C 781,319 611,232 395,223 c -80,-3 -117,0 -135,9 -41,22 -71,90 -85,193 -7,52 -16,103 -20,115 C 135,603 48,577 16,497 -2,455 -3,444 9,402 34,305 86,254 190,224 c 30,-9 76,-29 102,-46 33,-21 57,-28 80,-26 32,3 32,4 -22,23 l -55,20 135,7 c 148,7 233,28 333,81 156,82 226,267 128,336 -41,30 -67,38 -205,65 -140,28 -184,44 -215,77 -74,80 59,212 256,254 182,39 323,-10 323,-112 0,-51 -29,-78 -95,-88 -39,-5 -46,-9 -32,-17 34,-18 146,23 167,61 17,33 12,96 -11,125 -40,50 -93,69 -209,73 -82,2 -122,-1 -180,-17 z M 110,493 c 21,-105 31,-137 61,-190 32,-58 31,-60 -9,-39 -38,20 -78,65 -96,108 -21,50 -21,136 1,160 25,28 31,23 43,-39 z"
           id="path3" />
        <path
           d="M 2407.49,795.23264 C 2363.2489,749.22188 2288.039,639.5039 2213.7139,513.85912 2119.0379,352.82145 1948.2672,233.37043 1884.56,286.45977 c -41.5866,34.50807 21.2357,165.46179 115.0269,237.1324 83.1733,62.82239 111.4876,69.90097 84.943,21.23574 -22.1206,-40.70183 -22.1206,-44.24112 -0.8849,-51.3197 23.8902,-7.07858 44.2412,3.53929 58.3983,31.8536 18.5813,34.50808 16.8116,57.51346 -5.3089,79.63402 -15.042,15.04198 -25.6599,17.69644 -53.9742,13.27233 -59.2831,-9.73304 -86.7126,-30.08396 -219.4359,-163.69214 -140.6868,-141.57158 -197.3154,-180.50376 -253.9441,-176.07965 -45.1259,3.53929 -63.7072,34.50807 -48.6652,83.1733 8.8482,31.85361 13.2724,34.50808 43.3563,36.27772 32.7384,1.76964 142.4564,51.3197 175.1948,79.63401 60.168,52.20452 74.3251,106.17869 35.3929,131.83854 -24.775,15.9268 -69.0161,11.50269 -111.4876,-10.61787 -38.9322,-19.46609 -128.2992,-106.17869 -156.6135,-152.18945 -55.7439,-87.59741 -55.7439,-144.22605 0,-179.61894 52.2045,-31.85361 125.6447,-9.73305 224.7448,70.78579 l 53.9742,42.47147 -0.8848,-38.93218 c -0.8848,-32.73843 3.5393,-43.3563 23.8902,-61.05275 13.2723,-11.50269 34.5081,-23.8902 46.8956,-26.54467 36.2777,-9.73304 99.1001,14.15716 167.2314,62.82239 l 64.592,46.89559 -23.0053,-44.24112 c -18.5813,-37.16254 -20.351,-45.12594 -9.7331,-52.20452 20.3509,-12.38752 23.8902,-10.61787 67.2465,46.89558 61.9376,82.28849 151.3046,169.00108 222.0904,214.12702 34.5081,22.12056 64.5921,40.70183 67.2465,40.70183 2.6545,0 -11.5027,-26.54467 -31.8536,-59.2831 -49.55,-82.28848 -69.0161,-125.64478 -69.0161,-160.15285 0,-38.04736 13.2723,-62.82239 40.7018,-72.55544 30.084,-11.50269 53.0894,-0.88482 121.2207,57.51346 57.5134,47.78041 58.3983,48.66523 53.0893,23.8902 -7.9634,-39.817 16.8116,-78.74919 56.6287,-91.1367 42.4714,-12.38752 65.4768,-2.65447 139.8019,65.47685 l 53.0893,48.66523 v -33.62325 c 0,-62.82238 51.3197,-92.02152 108.8332,-62.82238 51.3197,26.54467 199.085,187.58234 184.9279,201.7395 -3.5393,2.65447 -16.8117,-8.84823 -30.084,-24.77503 -83.1733,-100.86975 -158.3832,-167.23143 -189.352,-167.23143 -8.8482,0 -20.3509,7.9634 -25.6598,17.69645 -12.3876,23.8902 10.6178,28.67827 81.4036,135.74178 44.2411,68.13132 51.3197,131.47458 42.4715,142.97727 -6.1938,7.07858 -16.8116,13.27233 -23.8902,13.27233 -7.0786,0 -21.2357,10.61787 -31.8536,23.00539 -15.9268,21.23573 -22.1206,23.00538 -60.1679,18.58127 -73.4403,-8.84823 -111.4877,-36.27772 -246.8655,-175.19483 -133.6082,-138.0323 -169.0011,-167.23143 -200.8547,-167.23143 -52.2045,0 -16.8116,91.1367 92.0216,232.70828 42.4714,54.85899 46.0107,79.63402 11.5027,84.05813 -28.3144,3.53929 -85.8278,-27.4295 -192.8913,-102.6394 -47.7804,-33.62325 -91.1367,-63.70721 -98.2153,-68.13132 -19.4661,-11.50269 19.4661,49.55005 105.2939,163.69214 107.9483,144.22605 134.493,184.04305 130.9537,200.85468 -5.309,27.42949 -26.5447,22.12056 -64.5921,-18.58127 z m 512.3122,-187.58235 c 7.9634,-2.65446 14.1572,-8.84822 14.1572,-14.15715 0,-14.15716 -123.8752,-176.96448 -176.0797,-230.93865 -74.3251,-76.97954 -126.5296,-98.21528 -141.5716,-57.51345 -15.042,41.58665 15.9268,102.6394 90.2519,176.96448 75.2099,75.2099 134.493,114.14208 198.2002,130.95371 0.8848,0 7.0786,-2.65447 15.042,-5.30894 z M 1810.2349,577.56633 c 0,-20.35091 -27.4295,-60.16792 -58.3983,-88.48223 -61.0527,-53.08935 -176.0796,-94.676 -154.8439,-54.85899 16.8117,31.8536 82.2885,98.21528 122.1055,124.75995 39.817,26.54467 91.1367,37.16254 91.1367,18.58127 z"
           id="path4"
           sodipodi:nodetypes="cccccccscccccccccccccccccccccscsccccscscccscccscccscccccccssccscssccss"
           style="stroke-width:0.884822" />
        <path
           d="M 1107,648 C 1061,587 950,344 950,305 c 0,-9 12,-21 26,-27 23,-11 28,-10 43,9 61,80 185,233 187,231 1,-2 -3,-27 -8,-56 -19,-96 25,-182 94,-182 74,1 171,76 219,170 31,58 38,160 15,195 -27,41 -33,29 -29,-47 5,-70 3,-77 -36,-155 -50,-98 -87,-133 -141,-133 -46,0 -70,27 -70,78 0,45 21,93 77,170 36,50 44,69 36,81 -29,47 -84,8 -223,-159 -51,-61 -93,-110 -96,-110 -8,0 18,55 76,165 56,104 59,114 45,129 -23,23 -31,20 -58,-16 z"
           id="path5" />
      </g>
    </g>
  </g>
</svg>
