<?xml version="1.0" encoding="UTF-8" standalone="no"?>
<svg
   viewBox="0 0 22 22.000001"
   version="1.1"
   id="svg940"
   sodipodi:docname="icon--link-disconnected.svg"
   inkscape:version="1.1 (c68e22c387, 2021-05-23)"
   width="22"
   height="22"
   xmlns:inkscape="http://www.inkscape.org/namespaces/inkscape"
   xmlns:sodipodi="http://sodipodi.sourceforge.net/DTD/sodipodi-0.dtd"
   xmlns="http://www.w3.org/2000/svg"
   xmlns:svg="http://www.w3.org/2000/svg"
   xmlns:rdf="http://www.w3.org/1999/02/22-rdf-syntax-ns#"
   xmlns:cc="http://creativecommons.org/ns#"
   xmlns:dc="http://purl.org/dc/elements/1.1/">
  <sodipodi:namedview
     id="namedview942"
     pagecolor="#505050"
     bordercolor="#ffffff"
     borderopacity="1"
     inkscape:pageshadow="0"
     inkscape:pageopacity="0"
     inkscape:pagecheckerboard="1"
     showgrid="false"
     inkscape:zoom="15.547302"
     inkscape:cx="17.076918"
     inkscape:cy="19.521072"
     inkscape:window-width="1920"
     inkscape:window-height="1027"
     inkscape:window-x="3832"
     inkscape:window-y="-8"
     inkscape:window-maximized="1"
     inkscape:current-layer="svg940"
     inkscape:snap-nodes="false" />
  <defs
     id="defs924">
    <style
       id="style922">.a{fill:#ffbc47;}.b{fill:#cf8b17;}.c{fill:#ffab19;}.d{fill:#fff;}</style>
  </defs>
  <title
     id="title926">scratch-arduino-link</title>
  <path
     class="d"
     d="m 18.109548,9.7650628 c -0.0276,0.102993 -0.04458,0.166375 -0.06137,0.229035 -0.106331,0.4717342 -0.358003,0.8636092 -0.67294,1.2207782 a 3.5932748,3.5932748 0 0 1 -0.955025,0.775428 c -0.318226,0.176423 -0.632236,0.360152 -0.945191,0.545707 -0.261621,0.155308 -0.500454,0.05272 -0.617642,-0.195604 -0.0098,-0.02115 -0.03011,-0.04898 -0.02351,-0.06497 0.04586,-0.113539 -0.007,-0.238868 0.04115,-0.349474 0.07037,-0.16178 0.05122,-0.338281 0.07851,-0.506205 a 1.484584,1.484584 0 0 0 -0.01378,-0.524757 c -0.03207,-0.168387 0.05866,-0.242113 0.162531,-0.318495 0.08148,-0.05922 0.175533,-0.101953 0.262148,-0.154396 a 2.1877295,2.1877295 0 0 0 0.623109,-0.5162152 1.8872336,1.8872336 0 0 0 0.239419,-0.426808 c 0.06517,-0.153912 0.06145,-0.318564 0.121674,-0.468394 0.03002,-0.07455 -0.0016,-0.140927 -0.0039,-0.2102384 A 1.5919572,1.5919572 0 0 0 15.962349,7.8249126 1.3630434,1.3630434 0 0 0 15.24671,7.3583434 2.3189634,2.3189634 0 0 0 14.531788,7.2578704 1.3115938,1.3115938 0 0 0 14.241105,7.3343725 1.8410034,1.8410034 0 0 0 13.818454,7.5144646 C 13.195195,7.8785651 12.565082,8.2307938 11.94604,8.6022001 a 1.4435734,1.4435734 0 0 0 -0.597408,0.6767197 1.4040541,1.4040541 0 0 0 -0.127959,0.327759 c -0.06272,0.3954162 -0.07688,0.7853182 0.157329,1.1414142 0.07441,0.114114 0.125458,0.2405 0.22707,0.339518 0.07954,0.07766 0.0729,0.376173 -0.0013,0.462828 -0.05243,0.06315 -0.06525,0.136908 -0.111907,0.2016 a 0.88955735,0.88955735 0 0 1 -0.261976,0.251707 c -0.189282,0.112936 -0.384224,0.21818 -0.571732,0.333134 a 0.47124916,0.47124916 0 0 1 -0.44248,0.02348 0.42874726,0.42874726 0 0 1 -0.181527,-0.18682 C 9.9235093,12.010338 9.7913545,11.866855 9.7073701,11.687645 A 4.5484491,4.5484491 0 0 1 9.3482274,10.694406 3.9139032,3.9139032 0 0 1 9.275151,9.7484838 3.2062838,3.2062838 0 0 1 9.4200138,8.9860148 5.3835742,5.3835742 0 0 1 9.6659298,8.3880295 C 9.7880902,8.0934551 9.9852551,7.8560317 10.186934,7.619046 a 2.116893,2.116893 0 0 1 0.405654,-0.3845823 c 0.704092,-0.4813924 1.466375,-0.8630501 2.200817,-1.2992568 0.124971,-0.074587 0.246251,-0.1555672 0.375299,-0.2252023 0.46361,-0.2494004 0.966035,-0.3440454 1.480095,-0.3668693 a 2.2115902,2.2115902 0 0 1 0.804312,0.098178 2.9259204,2.9259204 0 0 0 0.345715,0.092634 c 0.379261,0.076916 0.696502,0.2815775 1.002297,0.5001499 a 3.0273284,3.0273284 0 0 1 0.607115,0.5633186 3.7073589,3.7073589 0 0 1 0.545248,0.8863997 3.8102582,3.8102582 0 0 1 0.236129,0.7580263 4.7102546,4.7102546 0 0 1 0.06191,0.803207 c 0.0056,0.26706 -0.103636,0.504877 -0.141976,0.720013 z"
     id="path936"
     style="stroke-width:0.0745647" />
  <path
     class="d"
     d="m 10.52717,17.052369 c -0.129241,0.02279 -0.259262,0.04115 -0.387721,0.06837 -0.2769697,0.06095 -0.5506847,0.01154 -0.8205554,-0.03324 A 3.2174685,3.2174685 0 0 1 8.4127193,16.800555 3.5791075,3.5791075 0 0 1 7.0518271,15.67386 4.2583923,4.2583923 0 0 1 6.6108005,14.843045 C 6.466754,14.489869 6.4350581,14.116883 6.3805984,13.74791 a 2.1981685,2.1981685 0 0 1 0.036985,-0.696284 4.1390887,4.1390887 0 0 1 0.3438864,-1.055532 1.4912948,1.4912948 0 0 1 0.2517886,-0.379815 1.0058783,1.0058783 0 0 0 0.084115,-0.115532 c 0.2153225,-0.307514 0.4287881,-0.61697 0.6474365,-0.922798 0.1824876,-0.253265 0.4905877,-0.223548 0.6493314,0.04981 a 0.59651792,0.59651792 0 0 1 0.077029,0.213563 2.7462194,2.7462194 0 0 0 0.2470122,0.73101 2.8498644,2.8498644 0 0 0 0.1788169,0.361431 c 0.069312,0.109679 0.026317,0.230833 -0.043327,0.333971 -0.069643,0.10314 -0.1452908,0.206577 -0.2231413,0.310405 a 1.714989,1.714989 0 0 0 -0.3259641,0.770709 1.6299852,1.6299852 0 0 0 -0.00382,0.454964 1.7895538,1.7895538 0 0 0 0.3821461,0.879055 c 0.079549,0.103332 0.1919763,0.156951 0.2856534,0.237349 0.2299817,0.196436 0.5091363,0.263814 0.7965867,0.31383 a 0.55923555,0.55923555 0 0 0 0.1758455,-0.0075 0.31540885,0.31540885 0 0 1 0.1760153,-0.0023 0.14912948,0.14912948 0 0 0 0.105394,-0.0034 1.9528505,1.9528505 0 0 0 0.915878,-0.534012 6.3812504,6.3812504 0 0 0 0.501361,-0.669137 c 0.281336,-0.392596 0.560813,-0.787137 0.830056,-1.188201 0.165036,-0.244887 0.299752,-0.507144 0.326704,-0.809456 0.04832,-0.546097 -0.09255,-1.031578 -0.50198,-1.408374 a 1.3130851,1.3130851 0 0 0 -0.475828,-0.306828 0.21772904,0.21772904 0 0 1 -0.144764,-0.168305 c -0.01782,-0.1482882 -0.0775,-0.2891952 -0.05047,-0.4537192 a 1.3518587,1.3518587 0 0 1 0.336098,-0.670284 2.2615486,2.2615486 0 0 0 0.238993,-0.306386 0.29825896,0.29825896 0 0 1 0.321082,-0.1414163 0.53761178,0.53761178 0 0 1 0.311759,0.1191731 c 0.08495,0.078151 0.201444,0.09471 0.294864,0.1607667 a 3.8520145,3.8520145 0 0 1 1.020533,1.0428505 3.945966,3.945966 0 0 1 0.354182,0.6946982 c 0.132989,0.32484 0.168712,0.669101 0.210477,1.004726 a 2.7626236,2.7626236 0 0 1 -0.06004,0.90478 3.6969198,3.6969198 0 0 1 -0.262729,0.78152 3.0780325,3.0780325 0 0 1 -0.256898,0.462488 c -0.474324,0.689355 -0.949427,1.374306 -1.438091,2.051048 a 3.4419084,3.4419084 0 0 1 -0.639015,0.631324 3.5045428,3.5045428 0 0 1 -0.934924,0.516169 c -0.184665,0.07345 -0.396699,0.07756 -0.596434,0.112783 z"
     id="path938"
     style="stroke-width:0.0745647" />
  <metadata
     id="metadata1001">
    <rdf:RDF>
      <cc:Work
         rdf:about="">
        <dc:title>scratch-arduino-link</dc:title>
      </cc:Work>
    </rdf:RDF>
  </metadata>
  <rect
     style="fill:#ffffff;stroke-width:0"
     id="rect1348"
     width="1.7704926"
     height="4.491426"
     x="6.327332"
     y="4.9569454"
     rx="0.88524628"
     transform="rotate(-10)" />
  <rect
     style="fill:#ffffff;stroke-width:0"
     id="rect1348-1"
     width="1.7704926"
     height="4.491426"
     x="-11.218864"
     y="1.8359061"
     rx="0.88524628"
     transform="rotate(-100)" />
  <path
     id="path1964"
     style="fill:#ffffff;stroke-width:0.0730899"
     class="a"
     d="M 19.459122,0.16123853 2.5270245,0.16569394 A 1.5633172,1.653894 0 0 0 0.96578937,1.505423 2.6860631,2.8416907 0 0 0 0.91887917,2.0790366 v 15.4030454 0.451063 c 7.163e-4,0.318751 0.053291,0.257083 0.053291,0.575834 0.012356,-0.0029 0.021128,0.0018 0.028036,0.01003 a 2.6015018,2.75223 0 0 0 -0.017368,-0.276885 0.38159151,0.4037005 0 0 0 0.053986,0.183339 c 0.3147977,0.61119 0.7979877,0.947256 1.4574238,0.957784 0.8576916,0.01353 1.7161449,0.01879 2.5738373,-0.0038 a 0.90530267,0.95775509 0 0 1 0.8128862,0.414978 c 0.387276,0.541276 0.7894693,1.07136 1.1845623,1.60662 0.1904405,0.258609 0.4249215,0.438157 0.7468224,0.438157 h 6.3953888 a 0.75394519,0.797628 0 0 0 0.497426,-0.199162 1.9363815,2.0485733 0 0 0 0.284239,-0.311996 c 0.397935,-0.540521 0.80593,-1.073465 1.19747,-1.61925 a 0.71912587,0.76079125 0 0 1 0.625936,-0.327126 c 0.892513,0.0067 1.784309,0 2.676821,0 0.800134,-0.0045 1.414785,-0.526244 1.581775,-1.35319 0.0022,-0.481131 0.0064,-0.961438 0.0064,-1.44257 -0.0014,-4.914069 -2.11e-4,-9.8268364 0.0036,-14.7383998 A 1.5867669,1.6787024 0 0 0 19.459071,0.16122013 Z M 1.0002104,18.518974 a 2.6015018,2.75223 0 0 1 -0.00462,0.210956 c 0,0.05163 0.046529,-0.161625 0.00462,-0.210956 z M 3.5476783,2.1153837 H 18.410571 c 0.187505,0 0.37502,0.018803 0.545024,0.1339326 0.20188,0.1338896 0.276236,0.3407424 0.305614,0.5763884 a 0.67876831,0.72701863 0 0 1 0,0.09646 V 16.801042 a 0.75752032,0.81136885 0 0 1 -0.312415,0.661471 0.53751448,0.57572376 0 0 1 -0.350024,0.11103 h -2.714433 a 0.73689487,0.7892772 0 0 0 -0.61192,0.305337 c -0.15563,0.207526 -0.298831,0.426473 -0.457586,0.630655 -0.267508,0.344094 -0.499986,0.714911 -0.781243,1.048965 a 0.58251566,0.62392387 0 0 1 -0.467439,0.200827 H 12.186032 8.931574 c -0.1087523,0 -0.2187188,0.01404 -0.3268477,0.01873 A 0.64126725,0.68685181 0 0 1 8.0422149,19.51033 C 7.7809582,19.134549 7.5119709,18.764971 7.2352967,18.401685 7.1071682,18.232317 6.9890477,18.054212 6.8540438,17.88886 6.6940396,17.693382 6.5128102,17.573582 6.2628034,17.574919 c -0.8900236,0.0031 -1.7794394,-0.0047 -2.6694639,0.0039 A 0.71689424,0.76785482 0 0 1 2.873998,16.799769 c 0.00684,-1.755957 0,-3.512605 0,-5.268562 V 9.8127212 2.8657873 C 2.8183716,2.4641188 3.1864173,2.1200422 3.5476783,2.1153551 Z" />
</svg>
