<svg xmlns="http://www.w3.org/2000/svg" width="25" height="25" viewBox="0 0 6.615 6.615" xmlns:v="https://vecta.io/nano"><path d="M.995.519C.903.52.81.558.741.63L.719.652c-.14.144-.136.373.009.513l4.656 4.496c.144.14.373.135.513-.009l.021-.022c.14-.144.136-.373-.009-.513l-.99-.956c.129-.226.202-.477.216-.734h.004v-.827h-.001v-.451h-.46V1.126c.006-.113-.037-.223-.117-.304S4.368.694 4.252.694s-.228.046-.308.128-.123.192-.117.304V2.15h-.87V1.126c0-.109-.045-.215-.125-.292A.43.43 0 0 0 2.53.713h0a.43.43 0 0 0-.301.12c-.08.077-.125.182-.125.292v.318L1.253.621A.36.36 0 0 0 .995.519zm.652 2.056v.025h-.003v.655l-.004.093c.001.776.546 1.452 1.323 1.641v.834a.41.41 0 0 0 .205.376.44.44 0 0 0 .44 0 .41.41 0 0 0 .205-.376V4.99a1.79 1.79 0 0 0 .256-.086L1.647 2.575z" fill="#fff"/></svg>