<?xml version="1.0" encoding="UTF-8"?>
<svg version="1.1" xmlns="http://www.w3.org/2000/svg" width="332" height="152">
<path d="M0 0 C0.99 0.66 1.98 1.32 3 2 C2.49908854 6.71032527 0.32232169 9.80453145 -2.4375 13.5 C-3.10096436 14.40987671 -3.10096436 14.40987671 -3.77783203 15.33813477 C-7.66279046 20.63449543 -11.69480901 25.81673776 -15.7734375 30.96484375 C-18.15216477 34.20742461 -20.06881066 37.47712264 -22 41 C-21.40050537 40.59160889 -20.80101074 40.18321777 -20.18334961 39.76245117 C-17.43887833 37.89794734 -14.68828237 36.04267881 -11.9375 34.1875 C-10.99455078 33.54490234 -10.05160156 32.90230469 -9.08007812 32.24023438 C3.55959764 23.74038273 3.55959764 23.74038273 8.9375 24.3125 C9.618125 24.539375 10.29875 24.76625 11 25 C11.6628418 26.74926758 11.6628418 26.74926758 12 29 C10.98364258 30.96362305 10.98364258 30.96362305 9.39453125 33.01171875 C8.82283203 33.77033203 8.25113281 34.52894531 7.66210938 35.31054688 C7.05173828 36.09494141 6.44136719 36.87933594 5.8125 37.6875 C-2.19855586 47.79109637 -2.19855586 47.79109637 -5 60 C1.09467345 58.62869847 4.62183963 55.19676766 9 51 C10.01126953 50.03126953 10.01126953 50.03126953 11.04296875 49.04296875 C14.31297965 45.83620758 17.41454396 42.55680876 20.375 39.0625 C27.44837304 30.8934792 35.21877444 23.0512222 46.1875 21.0625 C50.25387497 20.99583812 51.91856271 21.40003729 55 24 C55 24.66 55 25.32 55 26 C56.175625 26.12375 56.175625 26.12375 57.375 26.25 C60 27 60 27 61.1640625 29.046875 C61.43992187 29.69140625 61.71578125 30.3359375 62 31 C61.33613281 31.96679688 60.67226563 32.93359375 59.98828125 33.9296875 C50.86955193 46.00405297 50.86955193 46.00405297 47 60 C50.2267646 60.35471526 51.64065653 60.24630496 54.359375 58.3828125 C64.31562031 49.59927487 64.31562031 49.59927487 72 39 C72.66 39 73.32 39 74 39 C72.74503575 48.95133622 62.04399911 58.06322021 54.4375 64 C51.01626965 65.40358168 48.66148608 65.52306944 45 65 C41.01452339 61.96757214 39.76525406 59.84389535 39 55 C38.34773437 55.61488281 37.69546875 56.22976562 37.0234375 56.86328125 C36.14945313 57.67152344 35.27546875 58.47976562 34.375 59.3125 C33.51648438 60.11300781 32.65796875 60.91351563 31.7734375 61.73828125 C28.04199049 64.78125001 24.83158369 67 19.9375 67 C16.1473985 65.70975268 14.45163386 64.15210067 12 61 C11.60141692 59.01197519 11.25867876 57.01101875 11 55 C10.22914063 55.63808594 9.45828125 56.27617188 8.6640625 56.93359375 C7.66117187 57.75988281 6.65828125 58.58617187 5.625 59.4375 C4.62726563 60.26121094 3.62953125 61.08492187 2.6015625 61.93359375 C-1.4508622 65.15241157 -3.81061551 65.36416733 -9 65 C-11.82156353 63.401114 -11.99626435 62.01334161 -12.875 58.875 C-13.18153438 49.3724343 -7.84566489 41.84599439 -3 34 C-15.57479817 40.59342293 -24.67698555 49.91448409 -32.94140625 61.25 C-36.07213279 65.43222293 -36.07213279 65.43222293 -38 67 C-40.1875 66.6875 -40.1875 66.6875 -42 66 C-41.67 63.36 -41.34 60.72 -41 58 C-41.6290625 58.47050781 -42.258125 58.94101563 -42.90625 59.42578125 C-54.69358178 68 -54.69358178 68 -62.625 68 C-66.8510875 66.74782593 -69.02738365 65.25572267 -72 62 C-72.875 58.1875 -72.875 58.1875 -73 55 C-73.6290625 55.53109375 -74.258125 56.0621875 -74.90625 56.609375 C-82.4397245 62.82676058 -88.96475624 67.83814123 -99 68 C-103.0954966 66.53180311 -106.10584289 64.99877613 -108 61 C-109.08895983 54.98652182 -107.85742146 50.46276858 -104.6796875 45.328125 C-98.77890721 37.14936907 -91.47787126 29.00778556 -82 25 C-77.66402593 24.34349688 -74.14802675 24.28931678 -70.375 26.625 C-69 29 -69 29 -68.8125 31.75 C-71.77196933 39.84960028 -77.59277346 43.71017718 -85 47.5 C-86.01429077 48.0256958 -86.01429077 48.0256958 -87.04907227 48.56201172 C-91.60211775 50.7537894 -94.95654198 51.36775215 -100 51 C-100 54.96 -100 58.92 -100 63 C-92.70578946 63.79284897 -87.17954323 61.31106671 -81.45849609 56.77880859 C-74.74346736 51.07829532 -68.75259485 44.73583927 -62.8984375 38.17211914 C-57.96656771 32.7156017 -51.41367387 25.81967597 -43.78125 24.6640625 C-40.01186108 24.59951817 -37.67006568 24.60115138 -34.375 26.5625 C-32.39009196 30.08120061 -32.97247971 32.16392427 -34 36 C-35.125 38.4375 -35.125 38.4375 -37 40 C-40.6875 40.25 -40.6875 40.25 -44 40 C-43.67 37.36 -43.34 34.72 -43 32 C-52.3273084 37.17802783 -59.83058901 43.25459495 -64.0625 53.3125 C-64.95548296 56.82489966 -65.22472518 58.63200575 -64 62 C-63.67 62.33 -63.34 62.66 -63 63 C-52.4533795 63 -45.32361645 57.41869106 -37.8125 50.4375 C-33.78959156 46.23776042 -30.93218823 41.84916089 -28.17675781 36.74267578 C-10.71111125 4.39920641 -10.71111125 4.39920641 0 0 Z M26.88671875 42.08203125 C22.410175 46.94200488 18.31278432 52.24658817 17.75 59 C17.8325 59.66 17.915 60.32 18 61 C19.64539322 62.32575833 19.64539322 62.32575833 22 63 C32.19992916 59.52275142 38.71324108 49.96919248 44.81152344 41.62353516 C45.93647271 40.08678235 47.08097047 38.56439536 48.2265625 37.04296875 C49.19722656 35.72232422 49.19722656 35.72232422 50.1875 34.375 C50.75855469 33.59898438 51.32960938 32.82296875 51.91796875 32.0234375 C52.27503906 31.35570312 52.63210938 30.68796875 53 30 C52.505 28.515 52.505 28.515 52 27 C41.98823403 27 33.5712425 35.49635443 26.88671875 42.08203125 Z M-79.8671875 30.16796875 C-86.84461575 34.24828527 -93.01412433 39.93412949 -97 47 C-88.67546473 46.84584194 -83.15342513 43.02334023 -77.25390625 37.30859375 C-74.97489979 34.73260628 -74 33.51322117 -74 30 C-77.00141076 28.63799724 -77.00141076 28.63799724 -79.8671875 30.16796875 Z " fill="#353491" transform="translate(258,60)"/>
<path d="M0 0 C2.41308694 2.01418889 4.31413663 3.71030451 5.7265625 6.53515625 C5.98953405 10.54547246 6.08357715 13.48791328 4.7890625 17.28515625 C1.23134115 21.16630682 -3.40179271 23.23661892 -8.640625 23.78125 C-10.52001728 23.78459411 -12.39899291 23.67147949 -14.2734375 23.53515625 C-14.2734375 22.54515625 -14.2734375 21.55515625 -14.2734375 20.53515625 C-13.24283203 20.38820313 -13.24283203 20.38820313 -12.19140625 20.23828125 C-10.83982422 20.01398438 -10.83982422 20.01398438 -9.4609375 19.78515625 C-8.56761719 19.6459375 -7.67429687 19.50671875 -6.75390625 19.36328125 C-3.70793471 18.34635847 -2.78880107 17.33628286 -1.2734375 14.53515625 C-1.5251705 10.947961 -2.1378448 7.94193434 -3.2734375 4.53515625 C-14.36193495 -1.45263237 -29.07926858 0.88836536 -40.66015625 4.26953125 C-48.1448142 6.89118441 -53.81023781 10.97983171 -58.2734375 17.53515625 C-59.29208812 20.38737797 -59.57852243 21.71853275 -58.51977539 24.55249023 C-55.80774244 28.86677419 -50.17110348 30.06295474 -45.44970703 31.23779297 C-41.39328532 32.06999984 -37.32286351 32.79995978 -33.24414062 33.51367188 C-25.5971147 34.96304437 -17.72921436 36.9777389 -12.1484375 42.72265625 C-10.19002382 49.01755738 -10.52589018 54.63041331 -13.2109375 60.66015625 C-19.027715 71.02636867 -29.10293086 76.72049078 -40.07421875 80.5 C-48.9409245 82.96501778 -58.14025189 83.67257761 -67.2734375 84.53515625 C-66.2834375 85.52515625 -65.2934375 86.51515625 -64.2734375 87.53515625 C-65.2734375 88.53515625 -65.2734375 88.53515625 -68.0078125 88.7734375 C-71.66288153 88.50673988 -73.42791029 87.62723961 -76.5234375 85.72265625 C-80.15706596 83.60755909 -83.38727248 82.0708338 -87.4609375 81.03515625 C-93.63763656 79.31940651 -98.13429177 76.54869731 -101.87890625 71.2734375 C-105.12063251 65.48918083 -106.48678452 60.12032144 -105.2734375 53.53515625 C-103.74055279 49.50947359 -101.91296441 46.96150752 -98.2734375 44.53515625 C-94.7734375 44.16015625 -94.7734375 44.16015625 -91.2734375 44.53515625 C-86.7454956 48.46588759 -87.16003629 55.35304106 -86.54492188 60.91796875 C-85.81729734 66.65285563 -84.6455342 71.73330239 -81.2734375 76.53515625 C-74.19998261 81.25079285 -61.06311043 79.35796412 -52.9375 77.84765625 C-40.3780684 74.74016802 -29.57232672 69.48349009 -22.2734375 58.53515625 C-20.95592229 54.58261061 -20.88377213 52.48473151 -22.2734375 48.53515625 C-30.10512405 43.63915685 -39.08546377 42.27806691 -48.0078125 40.35546875 C-55.0936076 38.71326731 -61.21140725 37.02412521 -66.2734375 31.53515625 C-68.52473183 27.77278277 -68.65136089 24.91906754 -68.2734375 20.53515625 C-64.09106177 10.07921692 -55.48097704 4.60785099 -45.4609375 0.28515625 C-31.83060271 -4.72631391 -13.09976229 -8.44056848 0 0 Z M-98.8984375 50.03515625 C-101.24666656 54.30466363 -100.89486532 58.26049592 -99.65234375 62.80859375 C-97.28169618 68.98281364 -93.48839593 72.59862209 -88.2734375 76.53515625 C-87.9434375 75.87515625 -87.6134375 75.21515625 -87.2734375 74.53515625 C-88.24124456 72.63320499 -89.21264162 70.73296647 -90.20507812 68.84375 C-91.95898866 65.05376417 -92.71315359 61.1131425 -93.5234375 57.03515625 C-93.69617188 56.21273437 -93.86890625 55.3903125 -94.046875 54.54296875 C-94.46559771 52.54240471 -94.87094623 50.53904895 -95.2734375 48.53515625 C-97.39708231 48.30906288 -97.39708231 48.30906288 -98.8984375 50.03515625 Z " fill="#1F1E87" transform="translate(105.2734375,49.46484375)"/>
<path d="M0 0 C6.35355022 1.69051164 12.50091488 2.0985297 19.05419922 2.32495117 C22.28466797 2.50073242 22.28466797 2.50073242 25.28466797 3.50073242 C25.28466797 4.16073242 25.28466797 4.82073242 25.28466797 5.50073242 C23.49853238 6.30480033 21.70535548 7.0932288 19.90966797 7.87573242 C18.91193359 8.3165918 17.91419922 8.75745117 16.88623047 9.21166992 C6.59063371 12.8966449 -3.25788488 12.63525954 -14.07006836 12.00708008 C-21.82578228 11.25198639 -21.82578228 11.25198639 -28.65625 14.09082031 C-30.00998251 16.18848014 -30.89332224 18.14741297 -31.71533203 20.50073242 C-32.17939453 21.56678711 -32.64345703 22.6328418 -33.12158203 23.73120117 C-33.48251953 24.70702148 -33.84345703 25.6828418 -34.21533203 26.68823242 C-37.5132139 34.76446946 -37.5132139 34.76446946 -41.71533203 37.50073242 C-49.02019981 38.21284217 -52.62166907 36.26666728 -58.51416016 32.2565918 C-61.73209102 30.21145014 -63.53755346 29.49563144 -67.39111328 29.60620117 C-75.42291835 31.76752122 -81.42137187 37.84560871 -87.61157227 43.16552734 C-91.62938361 46.61247001 -95.71982368 49.94364434 -99.90283203 53.18823242 C-100.45551758 53.62232422 -101.00820312 54.05641602 -101.57763672 54.50366211 C-105.47505142 57.50073242 -105.47505142 57.50073242 -107.71533203 57.50073242 C-105.71904172 50.51371634 -101.67282569 46.59936469 -96.71533203 41.50073242 C-96.06371094 40.82333008 -95.41208984 40.14592773 -94.74072266 39.44799805 C-69.18609683 12.97165443 -69.18609683 12.97165443 -59.71533203 12.50073242 C-56.71533203 14.31323242 -56.71533203 14.31323242 -53.71533203 16.50073242 C-50.97732689 18.33008394 -50.97732689 18.33008394 -47.71533203 18.50073242 C-41.82130421 16.03910904 -37.47296701 11.37612774 -33.09033203 6.87573242 C-22.48156787 -3.97418122 -14.29708768 -3.96070295 0 0 Z " fill="#F70606" transform="translate(234.71533203125,2.499267578125)"/>
<path d="M0 0 C8.46966901 2.14960409 17.06971139 2.84890694 25.75805664 3.57373047 C23.49150266 5.84028445 22.11131171 6.24682125 19.07055664 7.13623047 C18.24168945 7.38501953 17.41282227 7.63380859 16.55883789 7.89013672 C10.80085066 9.2955032 5.12716422 9.70917536 -0.78491211 9.81982422 C-2.20223686 9.8527252 -3.61955442 9.8859374 -5.03686523 9.91943359 C-7.24214348 9.96698344 -9.44738503 10.01154765 -11.65283203 10.05053711 C-13.80129954 10.09027507 -15.94923808 10.1417625 -18.09741211 10.19482422 C-19.37253662 10.21988037 -20.64766113 10.24493652 -21.96142578 10.27075195 C-25.05116807 10.55611105 -26.7507413 10.77887819 -29.24194336 12.57373047 C-30.58641761 14.39072142 -30.58641761 14.39072142 -31.60913086 16.56591797 C-32.22594727 17.74734375 -32.22594727 17.74734375 -32.85522461 18.95263672 C-33.6916366 20.60733412 -34.5250079 22.26357228 -35.35522461 23.92138672 C-37.94498841 28.86694813 -40.04255433 32.02596061 -45.24194336 34.57373047 C-51.96667245 35.80096222 -58.3235315 31.81149682 -64.03100586 28.75341797 C-67.94845132 27.31416185 -70.21974946 27.58343536 -74.24194336 28.57373047 C-76.3611206 29.49953229 -76.3611206 29.49953229 -78.17944336 30.88623047 C-78.93225586 31.41861328 -79.68506836 31.95099609 -80.46069336 32.49951172 C-83.34241182 34.64865849 -86.21089193 36.81459159 -89.07763672 38.98364258 C-89.77123291 39.50837158 -90.4648291 40.03310059 -91.17944336 40.57373047 C-92.21693726 41.35985718 -92.21693726 41.35985718 -93.27539062 42.16186523 C-107.11912715 52.57373047 -107.11912715 52.57373047 -111.24194336 52.57373047 C-108.12510858 43.08622239 -98.69738916 35.82222383 -91.24194336 29.57373047 C-90.16585994 28.62662613 -89.09181873 27.67719886 -88.01928711 26.72607422 C-69.50864236 10.3999155 -69.50864236 10.3999155 -63.74584961 10.70654297 C-59.98178258 12.01016681 -56.99861621 14.23747098 -53.74194336 16.49169922 C-51.31510883 17.82161431 -51.31510883 17.82161431 -48.85131836 17.10888672 C-45.35794338 15.05365264 -42.49786246 12.52680373 -39.49194336 9.82373047 C-38.24044507 8.73761628 -36.98654627 7.65426177 -35.73022461 6.57373047 C-34.82651123 5.79642578 -34.82651123 5.79642578 -33.90454102 5.00341797 C-33.35588379 4.53162109 -32.80722656 4.05982422 -32.24194336 3.57373047 C-31.43112305 2.87248047 -30.62030273 2.17123047 -29.78491211 1.44873047 C-20.71704867 -5.54984317 -10.2367922 -2.66574522 0 0 Z " fill="#F50D0D" transform="translate(276.241943359375,21.42626953125)"/>
<path d="M0 0 C2.625 1.625 2.625 1.625 4 4 C4.27809 8.07865331 2.80718913 10.69462774 0.4375 13.875 C-3.17875678 17.76943038 -7.32151041 20.10630426 -12 22.5 C-13.01429077 23.0256958 -13.01429077 23.0256958 -14.04907227 23.56201172 C-18.60211775 25.7537894 -21.95654198 26.36775215 -27 26 C-27 29.96 -27 33.92 -27 38 C-19.70578946 38.79284897 -14.17954323 36.31106671 -8.45849609 31.77880859 C-1.74346736 26.07829532 4.24740515 19.73583927 10.1015625 13.17211914 C15.03343229 7.7156017 21.58632613 0.81967597 29.21875 -0.3359375 C32.98813892 -0.40048183 35.32993432 -0.39884862 38.625 1.5625 C40.60990804 5.08120061 40.02752029 7.16392427 39 11 C37.875 13.4375 37.875 13.4375 36 15 C32.3125 15.25 32.3125 15.25 29 15 C29.33 12.36 29.66 9.72 30 7 C20.6726916 12.17802783 13.16941099 18.25459495 8.9375 28.3125 C8.04451704 31.82489966 7.77527482 33.63200575 9 37 C9.33 37.33 9.66 37.66 10 38 C19.91106079 38 26.35740911 32.80765648 34 27 C34 27.66 34 28.32 34 29 C34.66 29 35.32 29 36 29 C35 32 35 32 33.2734375 32.96875 C32.52320313 33.3090625 31.77296875 33.649375 31 34 C28.26399006 35.75236891 25.55728159 37.54501844 22.8515625 39.34375 C18.70600611 41.75158001 15.30921845 43.0233789 10.5 42.9375 C6.15303396 41.7731341 4.03208783 40.3208581 1 37 C0.125 33.1875 0.125 33.1875 0 30 C-0.6290625 30.53109375 -1.258125 31.0621875 -1.90625 31.609375 C-9.4397245 37.82676058 -15.96475624 42.83814123 -26 43 C-30.0954966 41.53180311 -33.10584289 39.99877613 -35 36 C-36.08895983 29.98652182 -34.85742146 25.46276858 -31.6796875 20.328125 C-24.1674053 9.91575246 -14.00763512 -2.05240075 0 0 Z M-6.8671875 5.16796875 C-13.84461575 9.24828527 -20.01412433 14.93412949 -24 22 C-15.67546473 21.84584194 -10.15342513 18.02334023 -4.25390625 12.30859375 C-1.97489979 9.73260628 -1 8.51322117 -1 5 C-4.00141076 3.63799724 -4.00141076 3.63799724 -6.8671875 5.16796875 Z " fill="#1C1B83" transform="translate(185,85)"/>
<path d="M0 0 C2.475 0.495 2.475 0.495 5 1 C5.78652602 3.77857141 6.20683431 5.437373 5.19555664 8.18823242 C4.77137451 8.90342041 4.34719238 9.6186084 3.91015625 10.35546875 C3.45576172 11.14244141 3.00136719 11.92941406 2.53320312 12.74023438 C2.04787109 13.54783203 1.56253906 14.35542969 1.0625 15.1875 C0.11245376 16.8039776 -0.8343327 18.42237692 -1.77734375 20.04296875 C-2.20265381 20.75477295 -2.62796387 21.46657715 -3.06616211 22.19995117 C-4.15350114 23.95790879 -4.15350114 23.95790879 -4 26 C-3.45472656 25.32195312 -2.90945312 24.64390625 -2.34765625 23.9453125 C14.05381702 3.70281044 14.05381702 3.70281044 20 1 C22.8125 1.5625 22.8125 1.5625 25 3 C26 6 26 6 25.21142578 7.66992188 C24.58469971 8.5603418 24.58469971 8.5603418 23.9453125 9.46875 C23.27048828 10.44908203 23.27048828 10.44908203 22.58203125 11.44921875 C21.86080078 12.46435547 21.86080078 12.46435547 21.125 13.5 C20.18711299 14.84166398 19.25209624 16.18534015 18.3203125 17.53125 C17.90023926 18.12486328 17.48016602 18.71847656 17.04736328 19.33007812 C14.79912269 22.9146855 14.89329428 26.07636809 14.9375 30.1875 C14.94652344 31.27417969 14.95554688 32.36085937 14.96484375 33.48046875 C14.97644531 34.31191406 14.98804688 35.14335938 15 36 C20.0238373 36.29551984 23.09672855 36.30276815 27 33 C33.62368599 24.55606443 37.66501792 15.69162957 36.83203125 4.8046875 C36.60718455 3.19491548 36.31209548 1.59515467 36 0 C37.8125 0.125 37.8125 0.125 40 1 C43.36994594 5.81420848 43.78709832 10.33472258 43 16 C40.68880561 25.66079255 34.38438171 32.25500729 27 38.5625 C23.00995984 40.47439425 19.42370051 41.19624549 15 41 C11.6155805 39.74923627 10.36113327 38.47320911 8.1875 35.625 C6.38806088 30.13197531 6.7704528 24.73017815 7 19 C-2.16909979 30.36869234 -2.16909979 30.36869234 -11 42 C-14.31726155 41.42805835 -15.72635823 40.42999536 -18 38 C-16.0780452 31.02442916 -13.66680004 24.46510984 -10.6875 17.875 C-10.13932617 16.61236328 -10.13932617 16.61236328 -9.58007812 15.32421875 C-7.02537037 9.63238281 -3.94899256 4.82682648 0 0 Z " fill="#020180" transform="translate(112,84)"/>
<path d="M0 0 C4.5279419 3.93073134 4.11340121 10.81788481 4.72851562 16.3828125 C5.45614016 22.11769938 6.6279033 27.19814614 10 32 C14.21841896 34.81227931 17.78330679 34.38285248 22.75 34.375 C23.68851807 34.37483887 24.62703613 34.37467773 25.59399414 34.37451172 C33.9363684 34.23934918 41.12064216 32.69531092 49 30 C50.68802734 29.43925781 50.68802734 29.43925781 52.41015625 28.8671875 C53.69212891 28.43792969 53.69212891 28.43792969 55 28 C55.103125 28.639375 55.20625 29.27875 55.3125 29.9375 C55.539375 30.618125 55.76625 31.29875 56 32 C57.485 32.495 57.485 32.495 59 33 C47.44505469 37.22042329 36.23114941 39.0850715 24 40 C24.99 40.99 25.98 41.98 27 43 C26 44 26 44 23.265625 44.23828125 C19.61055597 43.97158363 17.84552721 43.09208336 14.75 41.1875 C11.11637154 39.07240284 7.88616502 37.53567755 3.8125 36.5 C-2.36419906 34.78425026 -6.86085427 32.01354106 -10.60546875 26.73828125 C-13.84719501 20.95402458 -15.21334702 15.58516519 -14 9 C-11.31216968 1.94118349 -7.62032559 -0.81646346 0 0 Z M-7.625 5.5 C-9.97322906 9.76950738 -9.62142782 13.72533967 -8.37890625 18.2734375 C-6.00825868 24.44765739 -2.21495843 28.06346584 3 32 C3.33 31.34 3.66 30.68 4 30 C3.03219294 28.09804874 2.06079588 26.19781022 1.06835938 24.30859375 C-0.68555116 20.51860792 -1.43971609 16.57798625 -2.25 12.5 C-2.42273438 11.67757812 -2.59546875 10.85515625 -2.7734375 10.0078125 C-3.19216021 8.00724846 -3.59750873 6.0038927 -4 4 C-6.12364481 3.77390663 -6.12364481 3.77390663 -7.625 5.5 Z " fill="#0F0F67" transform="translate(14,94)"/>
<path d="M0 0 C6.35355022 1.69051164 12.50091488 2.0985297 19.05419922 2.32495117 C22.28466797 2.50073242 22.28466797 2.50073242 25.28466797 3.50073242 C25.28466797 4.16073242 25.28466797 4.82073242 25.28466797 5.50073242 C23.49853238 6.30480033 21.70535548 7.0932288 19.90966797 7.87573242 C18.91193359 8.3165918 17.91419922 8.75745117 16.88623047 9.21166992 C6.59063371 12.8966449 -3.25788488 12.63525954 -14.07006836 12.00708008 C-21.85956989 11.24231865 -21.85956989 11.24231865 -28.68041992 14.15014648 C-30.01317856 16.23223269 -30.90626128 18.16969954 -31.71533203 20.50073242 C-32.09302734 21.33604492 -32.47072266 22.17135742 -32.85986328 23.03198242 C-33.08029297 23.68166992 -33.30072266 24.33135742 -33.52783203 25.00073242 C-33.91970703 26.15573242 -34.31158203 27.31073242 -34.71533203 28.50073242 C-35.04533203 28.50073242 -35.37533203 28.50073242 -35.71533203 28.50073242 C-35.71533203 24.87073242 -35.71533203 21.24073242 -35.71533203 17.50073242 C-34.72533203 17.50073242 -33.73533203 17.50073242 -32.71533203 17.50073242 C-32.71533203 16.84073242 -32.71533203 16.18073242 -32.71533203 15.50073242 C-33.70533203 15.50073242 -34.69533203 15.50073242 -35.71533203 15.50073242 C-35.71533203 14.84073242 -35.71533203 14.18073242 -35.71533203 13.50073242 C-37.36533203 14.16073242 -39.01533203 14.82073242 -40.71533203 15.50073242 C-27.89956037 0.18432238 -20.26961418 -5.61526393 0 0 Z " fill="#F31C1C" transform="translate(234.71533203125,2.499267578125)"/>
<path d="M0 0 C0.69937532 1.31647119 1.36729133 2.65022151 2 4 C2.825 4.165 3.65 4.33 4.5 4.5 C5.325 4.665 6.15 4.83 7 5 C8.15625 7.03125 8.15625 7.03125 9 9 C8.33613281 9.96679688 7.67226563 10.93359375 6.98828125 11.9296875 C-2.13044807 24.00405297 -2.13044807 24.00405297 -6 38 C-2.7732354 38.35471526 -1.35934347 38.24630496 1.359375 36.3828125 C11.31562031 27.59927487 11.31562031 27.59927487 19 17 C19.66 17 20.32 17 21 17 C19.74503575 26.95133622 9.04399911 36.06322021 1.4375 42 C-1.98373035 43.40358168 -4.33851392 43.52306944 -8 43 C-11.98547661 39.96757214 -13.23474594 37.84389535 -14 33 C-14.65226562 33.61488281 -15.30453125 34.22976562 -15.9765625 34.86328125 C-16.85054688 35.67152344 -17.72453125 36.47976562 -18.625 37.3125 C-19.48351562 38.11300781 -20.34203125 38.91351563 -21.2265625 39.73828125 C-25.00208926 42.81719673 -28.16340691 45.07346372 -33.125 44.875 C-36.01496371 43.99544583 -37.75287291 42.98784319 -40 41 C-39.67 39.35 -39.34 37.7 -39 36 C-38.67 36 -38.34 36 -38 36 C-38 37.65 -38 39.3 -38 41 C-37.401875 40.649375 -36.80375 40.29875 -36.1875 39.9375 C-34 39 -34 39 -31 40 C-20.49127825 35.93981205 -14.39504035 26.76000849 -8 18 C-7.27554688 17.01128906 -6.55109375 16.02257812 -5.8046875 15.00390625 C-2.39045442 10.87740798 -2.39045442 10.87740798 -1 6 C-1.61488281 6.144375 -2.22976563 6.28875 -2.86328125 6.4375 C-3.67152344 6.623125 -4.47976563 6.80875 -5.3125 7 C-6.51326172 7.2784375 -6.51326172 7.2784375 -7.73828125 7.5625 C-10 8 -10 8 -13 8 C-13 7.01 -13 6.02 -13 5 C-14.32 4.34 -15.64 3.68 -17 3 C-11.09412966 -0.1589539 -6.63666996 -1.91726021 0 0 Z " fill="#211F89" transform="translate(311,82)"/>
<path d="M0 0 C8.47009662 2.14851696 17.06974068 2.84864487 25.75830078 3.57348633 C23.4917468 5.84004031 22.11155585 6.24657711 19.07080078 7.13598633 C18.24193359 7.38477539 17.41306641 7.63356445 16.55908203 7.88989258 C10.8010948 9.29525906 5.12740836 9.70893122 -0.78466797 9.81958008 C-2.20199272 9.85248106 -3.61931028 9.88569326 -5.03662109 9.91918945 C-7.24189934 9.9667393 -9.44714089 10.01130351 -11.65258789 10.05029297 C-13.8010554 10.09003093 -15.94899394 10.14151836 -18.09716797 10.19458008 C-20.00985474 10.23216431 -20.00985474 10.23216431 -21.96118164 10.27050781 C-25.01005971 10.55209282 -26.75356366 10.84039176 -29.24169922 12.57348633 C-29.65419922 13.41911133 -30.06669922 14.26473633 -30.49169922 15.13598633 C-32.24169922 17.57348633 -32.24169922 17.57348633 -34.20654297 18.12036133 C-36.20967016 18.35975087 -38.22675357 18.47439064 -40.24169922 18.57348633 C-40.24169922 16.92348633 -40.24169922 15.27348633 -40.24169922 13.57348633 C-40.90169922 13.24348633 -41.56169922 12.91348633 -42.24169922 12.57348633 C-27.93797901 -0.96771939 -19.67408288 -5.12615377 0 0 Z " fill="#F31212" transform="translate(276.24169921875,21.426513671875)"/>
<path d="M0 0 C2.625 1.625 2.625 1.625 4 4 C4.27809 8.07865331 2.80718913 10.69462774 0.4375 13.875 C-3.17875678 17.76943038 -7.32151041 20.10630426 -12 22.5 C-13.01429077 23.0256958 -13.01429077 23.0256958 -14.04907227 23.56201172 C-18.60211775 25.7537894 -21.95654198 26.36775215 -27 26 C-27.99 30.29 -28.98 34.58 -30 39 C-31.32 38.67 -32.64 38.34 -34 38 C-35.76453136 34.47093728 -35.51328747 30.85267535 -35 27 C-31.06061832 15.96973129 -20.98213218 6.63891449 -11.05078125 0.8671875 C-7.43849933 -0.66029171 -3.84135116 -0.56283534 0 0 Z M-6.8671875 5.16796875 C-13.84461575 9.24828527 -20.01412433 14.93412949 -24 22 C-15.67546473 21.84584194 -10.15342513 18.02334023 -4.25390625 12.30859375 C-1.97489979 9.73260628 -1 8.51322117 -1 5 C-4.00141076 3.63799724 -4.00141076 3.63799724 -6.8671875 5.16796875 Z " fill="#32318D" transform="translate(185,85)"/>
<path d="M0 0 C3.06411889 2.92992391 3.77435154 4.35573595 4.0625 8.75 C3.97033428 12.67058805 3.54784043 14.95349226 0.8125 17.9375 C-4.81541926 21.42635239 -9.64541732 22.41328783 -16.1875 21.9375 C-16.1875 20.9475 -16.1875 19.9575 -16.1875 18.9375 C-15.15689453 18.79054688 -15.15689453 18.79054688 -14.10546875 18.640625 C-13.20441406 18.49109375 -12.30335937 18.3415625 -11.375 18.1875 C-10.48167969 18.04828125 -9.58835938 17.9090625 -8.66796875 17.765625 C-5.62199721 16.74870222 -4.70286357 15.73862661 -3.1875 12.9375 C-3.439233 9.35030475 -4.0519073 6.34427809 -5.1875 2.9375 C-16.50694092 -3.1749981 -30.85486687 -0.45521531 -42.62890625 2.76953125 C-46.02521107 3.88423503 -49.04375321 5.24694895 -52.1875 6.9375 C-52.1875 5.9475 -52.1875 4.9575 -52.1875 3.9375 C-53.8375 4.2675 -55.4875 4.5975 -57.1875 4.9375 C-45.14476032 -7.98641576 -13.68382143 -11.42180197 0 0 Z " fill="#4D4C9C" transform="translate(107.1875,51.0625)"/>
<path d="M0 0 C2.92537919 2.92537919 2.42255667 6.13384708 2.5625 10.0625 C2.32425947 14.91937764 2.32425947 14.91937764 4 19 C4.04063832 20.66617115 4.042721 22.33388095 4 24 C2.68 24.33 1.36 24.66 0 25 C-0.67404284 22.43923903 -1.339414 19.87673417 -2 17.3125 C-2.19078125 16.59126953 -2.3815625 15.87003906 -2.578125 15.12695312 C-3.54865428 11.33149039 -4.24955239 7.95384561 -4 4 C-6.16658535 5.49479421 -6.16658535 5.49479421 -8 8 C-8.86922793 14.41055599 -7.4864761 19.54421752 -4 25 C-1.8339122 27.25885387 0.45792294 29.1791302 3 31 C2.34 31.33 1.68 31.66 1 32 C1 32.66 1 33.32 1 34 C-3.47827363 33.4881973 -5.84882323 32.22995619 -9 29 C-13.22040945 22.67516721 -15.40151588 16.60640889 -14 9 C-11.26430648 1.8154845 -7.65511888 -0.55673592 0 0 Z " fill="#5454A3" transform="translate(14,94)"/>
<path d="M0 0 C2.475 0.495 2.475 0.495 5 1 C5.77874766 3.76343477 6.20562947 5.43353219 5.21142578 8.17236328 C4.7936084 8.88118652 4.37579102 9.59000977 3.9453125 10.3203125 C3.27048828 11.49400391 3.27048828 11.49400391 2.58203125 12.69140625 C2.10121094 13.49449219 1.62039062 14.29757813 1.125 15.125 C0.18816379 16.73064026 -0.74681336 18.33736705 -1.6796875 19.9453125 C-2.09976074 20.65187988 -2.51983398 21.35844727 -2.95263672 22.08642578 C-4.13807381 24.11740796 -4.13807381 24.11740796 -5 27 C-5.66 27 -6.32 27 -7 27 C-6.79375 27.763125 -6.5875 28.52625 -6.375 29.3125 C-6 32 -6 32 -8 35 C-8.66 34.67 -9.32 34.34 -10 34 C-10 34.66 -10 35.32 -10 36 C-11.65 36 -13.3 36 -15 36 C-15.53519344 28.99383127 -13.84977685 24.29279719 -10.875 18 C-10.49601562 17.14921875 -10.11703125 16.2984375 -9.7265625 15.421875 C-7.10555548 9.72555308 -3.96179763 4.85519402 0 0 Z " fill="#33328C" transform="translate(112,84)"/>
<path d="M0 0 C0.6628418 1.74926758 0.6628418 1.74926758 1 4 C-0.01635742 5.96362305 -0.01635742 5.96362305 -1.60546875 8.01171875 C-2.17716797 8.77033203 -2.74886719 9.52894531 -3.33789062 10.31054688 C-3.94826172 11.09494141 -4.55863281 11.87933594 -5.1875 12.6875 C-9.70942325 18.54085104 -13.31998833 24.07809511 -16 31 C-17.98 31 -19.96 31 -22 31 C-22.4378065 24.60237596 -21.51504899 21.00919546 -18.125 15.625 C-17.76019531 15.01011719 -17.39539063 14.39523438 -17.01953125 13.76171875 C-15.51245401 11.25723039 -14.0731237 9.0731237 -12 7 C-12.33 6.01 -12.66 5.02 -13 4 C-9.23751581 -0.35656064 -5.53870938 -1.58248839 0 0 Z " fill="#0F0E7F" transform="translate(269,85)"/>
<path d="M0 0 C0 0.33 0 0.66 0 1 C-0.845625 1.268125 -1.69125 1.53625 -2.5625 1.8125 C-6.17859137 3.0616952 -9.5632136 4.31530078 -13 6 C-13.33 6.99 -13.66 7.98 -14 9 C-14.99 9 -15.98 9 -17 9 C-17.20625 9.556875 -17.4125 10.11375 -17.625 10.6875 C-19.55000774 13.92501302 -22.03850902 15.68231141 -25 18 C-23.02 18.66 -21.04 19.32 -19 20 C-23.63717102 24.77607245 -28.81645282 28.83982057 -34 33 C-34.91338135 33.73669922 -34.91338135 33.73669922 -35.84521484 34.48828125 C-37.74636349 36.01888755 -39.65346814 37.54174162 -41.5625 39.0625 C-42.47394775 39.79641968 -42.47394775 39.79641968 -43.40380859 40.54516602 C-47.77008599 44 -47.77008599 44 -50 44 C-48.00370969 37.01298392 -43.95749366 33.09863227 -39 28 C-38.34837891 27.32259766 -37.69675781 26.64519531 -37.02539062 25.94726562 C-10.07823964 -1.97182949 -10.07823964 -1.97182949 0 0 Z " fill="#F02323" transform="translate(177,16)"/>
<path d="M0 0 C1.8125 0.125 1.8125 0.125 4 1 C7.36994594 5.81420848 7.78709832 10.33472258 7 16 C4.68880561 25.66079255 -1.61561829 32.25500729 -9 38.5625 C-12.91742106 40.43959759 -16.66186753 41.04338132 -21 41 C-21.66 40.67 -22.32 40.34 -23 40 C-22.505 37.03 -22.505 37.03 -22 34 C-21.67 34.66 -21.34 35.32 -21 36 C-15.9761627 36.29551984 -12.90327145 36.30276815 -9 33 C-2.37631401 24.55606443 1.66501792 15.69162957 0.83203125 4.8046875 C0.60718455 3.19491548 0.31209548 1.59515467 0 0 Z " fill="#424293" transform="translate(148,84)"/>
<path d="M0 0 C0.66 1.32 1.32 2.64 2 4 C1.34 4 0.68 4 0 4 C0.99 5.32 1.98 6.64 3 8 C1.40435348 11.49719419 -0.67289984 14.4629076 -2.9375 17.5625 C-3.62714844 18.51253906 -4.31679687 19.46257812 -5.02734375 20.44140625 C-8.11278285 24.4433124 -8.11278285 24.4433124 -10 26 C-12.1875 25.6875 -12.1875 25.6875 -14 25 C-13.58525633 19.71201818 -12.64775386 16.88309282 -9 13 C-9.66 13 -10.32 13 -11 13 C-10.52758009 8.74822077 -8.15035929 6.70030797 -5 4 C-4.01 4 -3.02 4 -2 4 C-2 3.01 -2 2.02 -2 1 C-1.34 0.67 -0.68 0.34 0 0 Z " fill="#27278B" transform="translate(230,101)"/>
<path d="M0 0 C0.66 0.33 1.32 0.66 2 1 C1.34 2.32 0.68 3.64 0 5 C0.33 5 0.66 5 1 5 C1.44140625 7.6484375 1.44140625 7.6484375 1 11 C-1.04460305 13.3108877 -3.50655356 14.91942971 -6.0625 16.625 C-7.04766602 17.32109375 -7.04766602 17.32109375 -8.05273438 18.03125 C-19.47686043 26 -19.47686043 26 -23 26 C-20.07782697 17.10503375 -11.71328682 10.30128336 -4.69140625 4.4375 C-3.0380079 3.03230232 -1.51271002 1.55434424 0 0 Z " fill="#EF3333" transform="translate(188,48)"/>
<path d="M0 0 C-0.58027716 3.5522372 -1.86531374 5.16192965 -4.375 7.6875 C-7.9953848 11.66545367 -10.15533861 15.64695847 -11 21 C-10.67 21.99 -10.34 22.98 -10 24 C-11.32 24.33 -12.64 24.66 -14 25 C-14 24.34 -14 23.68 -14 23 C-14.66 23 -15.32 23 -16 23 C-17.20665031 19.22921777 -17.45925724 15.93649061 -17 12 C-14.22057838 7.0749011 -10.47193475 2.15731158 -4.9375 0.3125 C-3 0 -3 0 0 0 Z " fill="#33328C" transform="translate(55,55)"/>
<path d="M0 0 C3.22653081 0.08326531 4.43940051 0.26010508 7.25 2 C8.625 4.375 8.625 4.375 8.8125 7.125 C5.57690093 15.98032378 -1.42979827 19.92912747 -9.484375 24.125 C-12.375 25.375 -12.375 25.375 -15.375 25.375 C-15.375 24.715 -15.375 24.055 -15.375 23.375 C-17.025 23.375 -18.675 23.375 -20.375 23.375 C-20.375 23.045 -20.375 22.715 -20.375 22.375 C-19.09625 22.189375 -17.8175 22.00375 -16.5 21.8125 C-8.81492814 20.11280006 -1.62131921 15.02141268 2.625 8.375 C2.955 7.385 3.285 6.395 3.625 5.375 C1.645 5.375 -0.335 5.375 -2.375 5.375 C-2.375 4.715 -2.375 4.055 -2.375 3.375 C-1.055 3.045 0.265 2.715 1.625 2.375 C-1.015 2.375 -3.655 2.375 -6.375 2.375 C-3.98213116 -0.01786884 -3.28052906 0.05449384 0 0 Z " fill="#5C5A9C" transform="translate(180.375,84.625)"/>
<path d="M0 0 C0.33 0.66 0.66 1.32 1 2 C3.64 1.67 6.28 1.34 9 1 C7.65352167 5.13304044 5.97407451 7.30793614 2.6875 10.125 C1.92824219 10.78757812 1.16898438 11.45015625 0.38671875 12.1328125 C-3.75772505 15.3751106 -6.62170232 17.46099694 -12 17 C-12.33 15.35 -12.66 13.7 -13 12 C-12.48050781 11.63648437 -11.96101563 11.27296875 -11.42578125 10.8984375 C-6.90269987 7.63780582 -3.37935811 4.43540752 0 0 Z " fill="#36378C" transform="translate(82,109)"/>
<path d="M0 0 C0.33 0 0.66 0 1 0 C1.06993164 0.56396484 1.13986328 1.12792969 1.21191406 1.70898438 C1.54292999 4.30815125 1.8963077 6.90382559 2.25 9.5 C2.35957031 10.386875 2.46914063 11.27375 2.58203125 12.1875 C3.38716339 17.95055113 4.60841021 23.16855612 8 28 C11.18105867 30.12070578 11.96436393 30.24886728 15.60546875 30.23046875 C16.50716797 30.22853516 17.40886719 30.22660156 18.33789062 30.22460938 C19.74844727 30.20624023 19.74844727 30.20624023 21.1875 30.1875 C22.10853516 30.18685547 23.02957031 30.18621094 23.97851562 30.18554688 C29.40379143 30.15089288 34.63239844 29.78842561 40 29 C39.01 29.495 39.01 29.495 38 30 C37.67 30.66 37.34 31.32 37 32 C28.09 32 19.18 32 10 32 C10.33 32.99 10.66 33.98 11 35 C9.03964825 34.55037804 7.08175691 34.09001752 5.125 33.625 C3.48917969 33.24214844 3.48917969 33.24214844 1.8203125 32.8515625 C-1 32 -1 32 -3 30 C-2.34 30 -1.68 30 -1 30 C-1 29.34 -1 28.68 -1 28 C-0.01 28 0.98 28 2 28 C1.484375 27.236875 0.96875 26.47375 0.4375 25.6875 C-0.036875 24.800625 -0.51125 23.91375 -1 23 C-0.67 22.01 -0.34 21.02 0 20 C0.66 20 1.32 20 2 20 C2 18.35 2 16.7 2 15 C1.01 14.67 0.02 14.34 -1 14 C-0.34 14 0.32 14 1 14 C0.835 13.175 0.67 12.35 0.5 11.5 C-0.05896045 7.58727683 -0.06807187 3.94816827 0 0 Z " fill="#7F7FB9" transform="translate(16,98)"/>
<path d="M0 0 C0.8125 1.6875 0.8125 1.6875 1 4 C-1 6.375 -1 6.375 -4 9 C-4.79857422 9.80050781 -4.79857422 9.80050781 -5.61328125 10.6171875 C-9.96881481 14.8025048 -12.97317599 15.78853249 -19 16 C-18.50008693 11.71716268 -17.29833005 9.818457 -14.1875 6.875 C-13.50042969 6.21242188 -12.81335938 5.54984375 -12.10546875 4.8671875 C-7.83930643 1.08383761 -5.87686287 -0.4006952 0 0 Z " fill="#383891" transform="translate(298,86)"/>
<path d="M0 0 C0.33 0.66 0.66 1.32 1 2 C1.99 1.67 2.98 1.34 4 1 C4 4.3 4 7.6 4 11 C3.67 11 3.34 11 3 11 C2.505 7.535 2.505 7.535 2 4 C1.3709375 4.53109375 0.741875 5.0621875 0.09375 5.609375 C-7.4397245 11.82676058 -13.96475624 16.83814123 -24 17 C-27.5 15.5625 -27.5 15.5625 -30 14 C-29.34 13.67 -28.68 13.34 -28 13 C-27.53248212 10.64400765 -27.53248212 10.64400765 -27.375 7.9375 C-27.30023438 7.01839844 -27.22546875 6.09929687 -27.1484375 5.15234375 C-27.09945312 4.44207031 -27.05046875 3.73179688 -27 3 C-26.67 3 -26.34 3 -26 3 C-25.67 5.97 -25.34 8.94 -25 12 C-17.36728319 12.82964313 -11.53590249 9.76474444 -5.58203125 5.109375 C-3.67455848 3.44835446 -1.8159512 1.76015382 0 0 Z " fill="#63609D" transform="translate(183,111)"/>
<path d="M0 0 C0.721875 0.12375 1.44375 0.2475 2.1875 0.375 C1.15329955 3.47760136 0.02038514 4.57993265 -2.27490234 6.78271484 C-5.52957506 10.153146 -8.27841459 13.97316044 -11.125 17.6875 C-11.77017578 18.52345703 -12.41535156 19.35941406 -13.08007812 20.22070312 C-14.66074236 22.26971232 -16.23810229 24.32117444 -17.8125 26.375 C-19.99452484 25.8725005 -21.72853407 25.42258069 -23.6875 24.3125 C-25.1374598 21.81534701 -24.68474747 20.93620261 -24 18.1875 C-23.608125 16.929375 -23.21625 15.67125 -22.8125 14.375 C-22.4825 14.375 -22.1525 14.375 -21.8125 14.375 C-21.8125 16.355 -21.8125 18.335 -21.8125 20.375 C-20.8225 20.045 -19.8325 19.715 -18.8125 19.375 C-18.1525 19.705 -17.4925 20.035 -16.8125 20.375 C-16.8125 19.715 -16.8125 19.055 -16.8125 18.375 C-16.1525 18.375 -15.4925 18.375 -14.8125 18.375 C-14.8125 17.385 -14.8125 16.395 -14.8125 15.375 C-13.39203 11.5009909 -10.7241311 9.21891875 -7.8125 6.375 C-6.97296222 5.27554341 -6.1395787 4.17135946 -5.3125 3.0625 C-2.8125 0.375 -2.8125 0.375 0 0 Z " fill="#5B59A1" transform="translate(118.8125,99.625)"/>
<path d="M0 0 C0 0.33 0 0.66 0 1 C-5.94 1.33 -11.88 1.66 -18 2 C-18 2.66 -18 3.32 -18 4 C-11.73 4 -5.46 4 1 4 C1 4.33 1 4.66 1 5 C0.42668945 5.03963867 -0.14662109 5.07927734 -0.73730469 5.12011719 C-13.34326636 6.03535147 -24.61657951 7.11111735 -36 13 C-36 12.01 -36 11.02 -36 10 C-37.65 10.33 -39.3 10.66 -41 11 C-31.0152317 0.2846389 -13.57427628 -0.20060507 0 0 Z " fill="#53519A" transform="translate(91,45)"/>
<path d="M0 0 C2.33294775 -0.04241723 4.66702567 -0.04092937 7 0 C9.24624584 2.24624584 8.45789602 8.09242528 8.60546875 11.2734375 C8.46158649 14.94187048 8.46158649 14.94187048 10 18 C10.04063832 19.66617115 10.042721 21.33388095 10 23 C8.68 23.33 7.36 23.66 6 24 C5.32438628 21.4604163 4.65934172 18.91881165 4 16.375 C3.80921875 15.66214844 3.6184375 14.94929688 3.421875 14.21484375 C2.34982713 10.04151456 1.78053186 6.34821249 2 2 C1.34 2 0.68 2 0 2 C0 1.34 0 0.68 0 0 Z " fill="#131278" transform="translate(8,95)"/>
<path d="M0 0 C0.33 0 0.66 0 1 0 C1 1.98 1 3.96 1 6 C2.65 6 4.3 6 6 6 C6.33 7.32 6.66 8.64 7 10 C12.33456693 8.79972244 15.37268975 6.18747331 19.265625 2.55859375 C21 1 21 1 23 0 C23 4 23 4 21 6.375 C20.01 7.24125 19.02 8.1075 18 9 C17.38382812 9.54527344 16.76765625 10.09054688 16.1328125 10.65234375 C12.70992906 13.48254893 10.66459039 14.90194568 6.1875 15.5625 C3 15 3 15 1.125 13.9375 C-1.05710735 10.17942622 -1.19151433 6.28588194 -0.5625 2.0625 C-0.376875 1.381875 -0.19125 0.70125 0 0 Z " fill="#39398A" transform="translate(246,110)"/>
<path d="M0 0 C0.69937532 1.31647119 1.36729133 2.65022151 2 4 C3.2375 4.2475 3.2375 4.2475 4.5 4.5 C5.7375 4.7475 5.7375 4.7475 7 5 C8.3125 7.0625 8.3125 7.0625 9 9 C8.01 9.99 7.02 10.98 6 12 C5.34 10.02 4.68 8.04 4 6 C2.02 6.99 2.02 6.99 0 8 C-0.33 7.34 -0.66 6.68 -1 6 C-1.61488281 6.144375 -2.22976563 6.28875 -2.86328125 6.4375 C-3.67152344 6.623125 -4.47976563 6.80875 -5.3125 7 C-6.51326172 7.2784375 -6.51326172 7.2784375 -7.73828125 7.5625 C-10 8 -10 8 -13 8 C-13 7.01 -13 6.02 -13 5 C-14.32 4.34 -15.64 3.68 -17 3 C-11.09412966 -0.1589539 -6.63666996 -1.91726021 0 0 Z " fill="#56549A" transform="translate(311,82)"/>
<path d="M0 0 C0.99 0.66 1.98 1.32 3 2 C2.4520917 6.2829452 0.97567196 8.85135641 -1.5625 12.3125 C-2.20316406 13.19550781 -2.84382812 14.07851562 -3.50390625 14.98828125 C-3.99761719 15.65214844 -4.49132812 16.31601563 -5 17 C-5.99 16.67 -6.98 16.34 -8 16 C-8.33 16.66 -8.66 17.32 -9 18 C-9.99 17.01 -10.98 16.02 -12 15 C-11.34 14.34 -10.68 13.68 -10 13 C-9.71125 12.071875 -9.4225 11.14375 -9.125 10.1875 C-7.61945214 5.92178108 -5.69738694 2.99014238 -1.75 0.6875 C-0.88375 0.3471875 -0.88375 0.3471875 0 0 Z " fill="#242384" transform="translate(258,60)"/>
<path d="M0 0 C1.32 0.66 2.64 1.32 4 2 C3.67 4.97 3.34 7.94 3 11 C2.67 11 2.34 11 2 11 C1.67 9.35 1.34 7.7 1 6 C0.34773438 6.61488281 -0.30453125 7.22976562 -0.9765625 7.86328125 C-2.28753906 9.07564453 -2.28753906 9.07564453 -3.625 10.3125 C-4.48351562 11.11300781 -5.34203125 11.91351563 -6.2265625 12.73828125 C-10.00208926 15.81719673 -13.16340691 18.07346372 -18.125 17.875 C-21.01496371 16.99544583 -22.75287291 15.98784319 -25 14 C-24.67 12.35 -24.34 10.7 -24 9 C-23.67 9 -23.34 9 -23 9 C-23 10.65 -23 12.3 -23 14 C-22.401875 13.649375 -21.80375 13.29875 -21.1875 12.9375 C-19 12 -19 12 -16 13 C-9.52998468 10.50022135 -3.80316438 5.81660434 0 0 Z " fill="#5D5A9C" transform="translate(296,109)"/>
<path d="M0 0 C0.66 0 1.32 0 2 0 C0.74503575 9.95133622 -9.95600089 19.06322021 -17.5625 25 C-20.79213952 26.32498032 -23.5477063 26.2030761 -27 26 C-27 25.67 -27 25.34 -27 25 C-25.35 25 -23.7 25 -22 25 C-22 24.34 -22 23.68 -22 23 C-23.32 23 -24.64 23 -26 23 C-25.67 22.34 -25.34 21.68 -25 21 C-24.27296875 21.07992187 -23.5459375 21.15984375 -22.796875 21.2421875 C-14.92320979 20.56038967 -7.68995082 9.65356516 -2.71484375 4.06640625 C-0.96215332 2.1135104 -0.96215332 2.1135104 0 0 Z " fill="#4A478D" transform="translate(330,99)"/>
<path d="M0 0 C3.5420064 0.30872347 7.08353306 0.62265332 10.625 0.9375 C11.62402344 1.02451172 12.62304688 1.11152344 13.65234375 1.20117188 C18.47482126 1.63232053 23.23730947 2.09785214 28 3 C25.73344602 5.26655398 24.35325507 5.67309078 21.3125 6.5625 C20.48363281 6.81128906 19.65476562 7.06007813 18.80078125 7.31640625 C13.04153107 8.72208098 7.45056282 9.12220151 1.53515625 9.09765625 C0.51789711 9.09553383 0.51789711 9.09553383 -0.51991272 9.09336853 C-2.65915578 9.08782745 -4.79828925 9.07528653 -6.9375 9.0625 C-8.39908702 9.05747736 -9.86067569 9.0529158 -11.32226562 9.04882812 C-14.88154526 9.03787745 -18.44076191 9.02065445 -22 9 C-22 8.67 -22 8.34 -22 8 C-21.22398437 7.98018066 -20.44796875 7.96036133 -19.6484375 7.93994141 C-16.09864413 7.84410122 -12.54939219 7.73466196 -9 7.625 C-7.77925781 7.5940625 -6.55851562 7.563125 -5.30078125 7.53125 C1.09775898 7.32372978 6.87100828 6.88466495 13 5 C12.39671875 4.89042969 11.7934375 4.78085937 11.171875 4.66796875 C10.37265625 4.50941406 9.5734375 4.35085937 8.75 4.1875 C7.96109375 4.03667969 7.1721875 3.88585937 6.359375 3.73046875 C3.7336961 2.91755161 2.14589659 1.6846476 0 0 Z " fill="#EC6B6B" transform="translate(274,22)"/>
<path d="M0 0 C0.33 0.66 0.66 1.32 1 2 C-0.3125 4 -0.3125 4 -2 6 C-2.99 6 -3.98 6 -5 6 C-5 6.99 -5 7.98 -5 9 C0.28 9.33 5.56 9.66 11 10 C11 10.33 11 10.66 11 11 C9.78763672 10.9690625 9.78763672 10.9690625 8.55078125 10.9375 C2.42405193 10.87286131 2.42405193 10.87286131 -2.8046875 13.56640625 C-4.12708196 15.66498876 -5.09673753 17.69034201 -6 20 C-6.31453125 20.76183594 -6.6290625 21.52367188 -6.953125 22.30859375 C-7.68917665 24.18552547 -8.35223559 26.09079965 -9 28 C-9.33 28 -9.66 28 -10 28 C-10 24.37 -10 20.74 -10 17 C-9.01 17 -8.02 17 -7 17 C-7 16.34 -7 15.68 -7 15 C-7.99 15 -8.98 15 -10 15 C-10 14.34 -10 13.68 -10 13 C-11.65 13.66 -13.3 14.32 -15 15 C-4.21052632 2.10526316 -4.21052632 2.10526316 0 0 Z M-9 10 C-9.33 10.66 -9.66 11.32 -10 12 C-8.68 11.34 -7.36 10.68 -6 10 C-6.99 10 -7.98 10 -9 10 Z " fill="#EC2F2E" transform="translate(209,3)"/>
<path d="M0 0 C0.33 0.66 0.66 1.32 1 2 C1.66 2 2.32 2 3 2 C2 5 2 5 0.2734375 5.96875 C-0.47679687 6.3090625 -1.22703125 6.649375 -2 7 C-4.73600994 8.75236891 -7.44271841 10.54501844 -10.1484375 12.34375 C-15.66619628 15.54858524 -19.73610099 16.53642806 -26 15 C-27.9375 13.4375 -27.9375 13.4375 -29 12 C-28.34 12 -27.68 12 -27 12 C-26.34 11.01 -25.68 10.02 -25 9 C-24.34 9.66 -23.68 10.32 -23 11 C-14.25962669 11.13873608 -7.4740903 7.24366505 -1.1796875 1.2734375 C-0.79039062 0.85320312 -0.40109375 0.43296875 0 0 Z " fill="#5E5B9B" transform="translate(218,112)"/>
<path d="M0 0 C0 1.98 0 3.96 0 6 C-0.99 6.33 -1.98 6.66 -3 7 C-2.83628906 7.54140625 -2.67257813 8.0828125 -2.50390625 8.640625 C-1.91409413 11.40222593 -1.90390692 13.92818139 -1.9375 16.75 C-1.94652344 17.73484375 -1.95554688 18.7196875 -1.96484375 19.734375 C-1.97644531 20.48203125 -1.98804688 21.2296875 -2 22 C-4.475 21.01 -4.475 21.01 -7 20 C-7.33 16.7 -7.66 13.4 -8 10 C-8.66 10 -9.32 10 -10 10 C-9.43867066 6.4628562 -8.30442253 5.00738321 -5.5625 2.75 C-4.94503906 2.22921875 -4.32757813 1.7084375 -3.69140625 1.171875 C-2 0 -2 0 0 0 Z " fill="#16157F" transform="translate(194,103)"/>
<path d="M0 0 C1.76462683 3.08809695 2 4.23312136 2 8 C2.66 8 3.32 8 4 8 C4 8.66 4 9.32 4 10 C4.99 9.34 5.98 8.68 7 8 C6.67 7.01 6.34 6.02 6 5 C6.99 4.01 7.98 3.02 9 2 C9.23976563 2.61617188 9.47953125 3.23234375 9.7265625 3.8671875 C11.30728969 6.5146631 12.53928063 7.00390164 15.375 8.125 C18.31837909 9.31613334 21.17680976 10.5432854 24 12 C21.69 12.33 19.38 12.66 17 13 C17 12.34 17 11.68 17 11 C16.34 11 15.68 11 15 11 C14.67 11.99 14.34 12.98 14 14 C12.68 13.67 11.36 13.34 10 13 C10 13.99 10 14.98 10 16 C5.57258356 14.64717831 3.63690779 12.76701112 1 9 C-0.4783226 6.04335481 -0.06032783 3.25770263 0 0 Z " fill="#2F2E8E" transform="translate(37,70)"/>
<path d="M0 0 C0.99 0 1.98 0 3 0 C4.83508773 5.96403511 2.71739052 9.75182088 0 15 C-1.98 15 -3.96 15 -6 15 C-6.304 5.88 -6.304 5.88 -4 3 C-1.875 2.25 -1.875 2.25 0 2 C0 1.34 0 0.68 0 0 Z " fill="#1A1A82" transform="translate(253,101)"/>
<path d="M0 0 C0.33 0.99 0.66 1.98 1 3 C1.99 3 2.98 3 4 3 C3.43735713 6.34631511 2.58147566 7.73007551 -0.08984375 9.796875 C-1.01893555 10.52197266 -1.01893555 10.52197266 -1.96679688 11.26171875 C-2.94229492 11.99841797 -2.94229492 11.99841797 -3.9375 12.75 C-4.58396484 13.25660156 -5.23042969 13.76320313 -5.89648438 14.28515625 C-10.71777081 18 -10.71777081 18 -13 18 C-11.7064371 13.19132053 -9.90772967 10.35688271 -6.5 6.75 C-5.7059375 5.89921875 -4.911875 5.0484375 -4.09375 4.171875 C-2.74154305 2.76921256 -1.3776657 1.3776657 0 0 Z " fill="#EA3335" transform="translate(140,42)"/>
<path d="M0 0 C1.5625 1.0625 1.5625 1.0625 3 3 C2.87129874 6.53928466 2.35976409 9.22051115 0.875 12.4375 C-1.95870446 14.79892038 -4.44612205 14.2682172 -8 14 C-7.67 10.7 -7.34 7.4 -7 4 C-4.69 3.34 -2.38 2.68 0 2 C0 1.34 0 0.68 0 0 Z " fill="#2F2E8A" transform="translate(222,86)"/>
<path d="M0 0 C2.475 0.99 2.475 0.99 5 2 C4.39174965 6.34464536 3.73832608 10.67551867 3 15 C4.32 15 5.64 15 7 15 C7 15.66 7 16.32 7 17 C3.625 17.125 3.625 17.125 0 17 C-2 15 -2 15 -2.1953125 12.3984375 C-2.17210937 11.40070313 -2.14890625 10.40296875 -2.125 9.375 C-2.10695313 8.37210938 -2.08890625 7.36921875 -2.0703125 6.3359375 C-2.04710937 5.56507812 -2.02390625 4.79421875 -2 4 C-2.66 4 -3.32 4 -4 4 C-4 3.34 -4 2.68 -4 2 C-2.68 2 -1.36 2 0 2 C0 1.34 0 0.68 0 0 Z " fill="#191779" transform="translate(301,107)"/>
<path d="M0 0 C0.66 1.32 1.32 2.64 2 4 C-0.64 4.33 -3.28 4.66 -6 5 C-6 5.66 -6 6.32 -6 7 C-10.04141194 7.63394697 -13.9065307 8.12404452 -18 8 C-14.11555337 0.01530414 -8.06804814 -0.48408289 0 0 Z " fill="#4C4A9B" transform="translate(221,85)"/>
<path d="M0 0 C0.66 0.33 1.32 0.66 2 1 C1.67 1.66 1.34 2.32 1 3 C1.66 3.33 2.32 3.66 3 4 C2.39414062 4.3403125 1.78828125 4.680625 1.1640625 5.03125 C-5.38342332 8.81871872 -11.20749351 13.14415413 -17 18 C-17.33 17.01 -17.66 16.02 -18 15 C-18.66 14.67 -19.32 14.34 -20 14 C-17.22962269 12.04102092 -14.45861941 10.08292915 -11.6875 8.125 C-10.90181641 7.56941406 -10.11613281 7.01382813 -9.30664062 6.44140625 C-8.54931641 5.90644531 -7.79199219 5.37148437 -7.01171875 4.8203125 C-5.96697388 4.08192139 -5.96697388 4.08192139 -4.90112305 3.32861328 C-3.28238541 2.19734704 -1.64318344 1.09545562 0 0 Z " fill="#5F5C9E" transform="translate(255,88)"/>
<path d="M0 0 C0.66 0 1.32 0 2 0 C2.625 1.875 2.625 1.875 3 4 C2.34 4.66 1.68 5.32 1 6 C0.01 6 -0.98 6 -2 6 C-1.48824219 6.38800781 -0.97648438 6.77601562 -0.44921875 7.17578125 C1 9 1 9 0.85546875 11.48046875 C0.63503906 12.37378906 0.41460937 13.26710938 0.1875 14.1875 C-0.02519531 15.08855469 -0.23789063 15.98960938 -0.45703125 16.91796875 C-0.63621094 17.60503906 -0.81539062 18.29210937 -1 19 C-2.9375 18.625 -2.9375 18.625 -5 18 C-6.18306728 15.63386544 -6.13354608 14.13219264 -6.125 11.5 C-6.12757813 10.7059375 -6.13015625 9.911875 -6.1328125 9.09375 C-6 7 -6 7 -5 5 C-4.01 5 -3.02 5 -2 5 C-1.34 3.35 -0.68 1.7 0 0 Z " fill="#222084" transform="translate(156,105)"/>
<path d="M0 0 C0 0.33 0 0.66 0 1 C-0.845625 1.268125 -1.69125 1.53625 -2.5625 1.8125 C-6.17859137 3.0616952 -9.5632136 4.31530078 -13 6 C-13.33 6.99 -13.66 7.98 -14 9 C-14.99 9 -15.98 9 -17 9 C-17.20625 9.556875 -17.4125 10.11375 -17.625 10.6875 C-19.51040088 13.85840149 -22.15359359 15.68729479 -25 18 C-25.66 18.99 -26.32 19.98 -27 21 C-29.625 21.6875 -29.625 21.6875 -32 22 C-11.42857143 -3.71428571 -11.42857143 -3.71428571 0 0 Z " fill="#E64043" transform="translate(177,16)"/>
<path d="M0 0 C0.66 0 1.32 0 2 0 C2 0.66 2 1.32 2 2 C5.465 1.505 5.465 1.505 9 1 C9 1.66 9 2.32 9 3 C12.3 3 15.6 3 19 3 C18.01 3.66 17.02 4.32 16 5 C15.67 5.99 15.34 6.98 15 8 C13.68 8 12.36 8 11 8 C11 7.34 11 6.68 11 6 C10.11248047 6.01740234 10.11248047 6.01740234 9.20703125 6.03515625 C4.98252363 6.08339696 1.13039062 6.00130682 -3 5 C-3.66 5 -4.32 5 -5 5 C-5 4.01 -5 3.02 -5 2 C-3.68 2 -2.36 2 -1 2 C-0.67 1.34 -0.34 0.68 0 0 Z " fill="#02017B" transform="translate(52,81)"/>
<path d="M0 0 C0.2475 0.598125 0.495 1.19625 0.75 1.8125 C2.16370012 4.28647521 3.65055383 5.43370255 6 7 C4.68 9.31 3.36 11.62 2 14 C1.278125 13.484375 0.55625 12.96875 -0.1875 12.4375 C-3.48217259 10.75355623 -4.53318353 11.12018607 -8 12 C-6.85573734 10.186508 -5.70954608 8.37423275 -4.5625 6.5625 C-3.60537109 5.04849609 -3.60537109 5.04849609 -2.62890625 3.50390625 C-1 1 -1 1 0 0 Z " fill="#03027A" transform="translate(305,97)"/>
<path d="M0 0 C0.103125 0.639375 0.20625 1.27875 0.3125 1.9375 C0.6528125 2.9584375 0.6528125 2.9584375 1 4 C1.99 4.33 2.98 4.66 4 5 C-3.04349737 7.56235522 -9.50559651 9.5003731 -17 10 C-16.01 9.67 -15.02 9.34 -14 9 C-14 8.34 -14 7.68 -14 7 C-13.01 6.67 -12.02 6.34 -11 6 C-11.33 5.34 -11.66 4.68 -12 4 C-10.3767313 3.3291288 -8.75132422 2.66342971 -7.125 2 C-6.22007813 1.62875 -5.31515625 1.2575 -4.3828125 0.875 C-2 0 -2 0 0 0 Z " fill="#3E3D90" transform="translate(69,122)"/>
<path d="M0 0 C1.134375 0.020625 2.26875 0.04125 3.4375 0.0625 C3.4375 0.3925 3.4375 0.7225 3.4375 1.0625 C1.4575 1.0625 -0.5225 1.0625 -2.5625 1.0625 C-2.5625 1.7225 -2.5625 2.3825 -2.5625 3.0625 C-1.9025 3.3925 -1.2425 3.7225 -0.5625 4.0625 C-1.201875 4.51625 -1.84125 4.97 -2.5 5.4375 C-5.54475157 9.31263836 -5.37899865 13.2547647 -5.5625 18.0625 C-6.8825 18.0625 -8.2025 18.0625 -9.5625 18.0625 C-10.32817413 7.39410718 -10.32817413 7.39410718 -8.484375 4.1875 C-7.125 2.875 -7.125 2.875 -4.5625 1.0625 C-3.5625 0.0625 -3.5625 0.0625 0 0 Z " fill="#0D0B70" transform="translate(10.5625,93.9375)"/>
<path d="M0 0 C0.33 0.99 0.66 1.98 1 3 C3.97 2.01 6.94 1.02 10 0 C8.44298069 4.67105792 5.91552627 8.08705685 3 12 C1 9 1 9 1 7 C0.01 7 -0.98 7 -2 7 C-2 7.66 -2 8.32 -2 9 C-2.99 9.33 -3.98 9.66 -5 10 C-3.66511872 6.40608886 -2.03977277 3.24509304 0 0 Z " fill="#2B2A8E" transform="translate(255,94)"/>
<path d="M0 0 C0.33 4.62 0.66 9.24 1 14 C-0.32 14 -1.64 14 -3 14 C-5.41685712 9.77050005 -6.34833144 6.87664009 -6 2 C-1.125 0 -1.125 0 0 0 Z " fill="#0D0E74" transform="translate(125,108)"/>
<path d="M0 0 C0.33 0 0.66 0 1 0 C1.125 7.625 1.125 7.625 0 11 C0.33 11.99 0.66 12.98 1 14 C-0.32 14.33 -1.64 14.66 -3 15 C-3 14.34 -3 13.68 -3 13 C-3.66 13 -4.32 13 -5 13 C-5.33 10.03 -5.66 7.06 -6 4 C-5.01 3.67 -4.02 3.34 -3 3 C-1.9805881 2.01979625 -0.97753644 1.02196992 0 0 Z " fill="#020278" transform="translate(44,65)"/>
<path d="M0 0 C0.625 1.8125 0.625 1.8125 1 4 C0.01 5.485 0.01 5.485 -1 7 C-0.01 7 0.98 7 2 7 C2.66 7 3.32 7 4 7 C2.40956621 12.08938811 -0.7446951 15.87456643 -4 20 C-4.33 18.68 -4.66 17.36 -5 16 C-4.34 16 -3.68 16 -3 16 C-2.67 14.02 -2.34 12.04 -2 10 C-3.65 10.33 -5.3 10.66 -7 11 C-4.84921278 7.14341602 -2.76544722 3.45680903 0 0 Z " fill="#3A3A90" transform="translate(248,69)"/>
<path d="M0 0 C0.33 0.99 0.66 1.98 1 3 C1.391875 3.99 1.78375 4.98 2.1875 6 C2.455625 6.99 2.72375 7.98 3 9 C2.01 10.485 2.01 10.485 1 12 C0.34 11.67 -0.32 11.34 -1 11 C-1 11.66 -1 12.32 -1 13 C-2.65 13 -4.3 13 -6 13 C-6.25 7.375 -6.25 7.375 -4 4 C-3.34 4 -2.68 4 -2 4 C-1.34 2.68 -0.68 1.36 0 0 Z " fill="#050577" transform="translate(103,107)"/>
<path d="M0 0 C0.77923828 0.00451172 1.55847656 0.00902344 2.36132812 0.01367188 C4.26175268 0.02533092 6.16213706 0.04326123 8.0625 0.0625 C7.4025 1.3825 6.7425 2.7025 6.0625 4.0625 C-1.1975 3.7325 -8.4575 3.4025 -15.9375 3.0625 C-15.9375 2.4025 -15.9375 1.7425 -15.9375 1.0625 C-10.57260405 0.15766363 -5.43432543 -0.06053662 0 0 Z " fill="#100D70" transform="translate(88.9375,45.9375)"/>
<path d="M0 0 C0 0.66 0 1.32 0 2 C-0.99 2.495 -0.99 2.495 -2 3 C-2.72159424 4.64363134 -3.39351421 6.31050386 -4 8 C-3.34 8 -2.68 8 -2 8 C-2 8.66 -2 9.32 -2 10 C-4.1171875 11.5078125 -4.1171875 11.5078125 -6.875 13.125 C-7.77992188 13.66382812 -8.68484375 14.20265625 -9.6171875 14.7578125 C-12 16 -12 16 -14 16 C-12.54755344 11.48586212 -10.19375837 8.65514172 -7 5.1875 C-6.113125 4.21167969 -5.22625 3.23585937 -4.3125 2.23046875 C-2 0 -2 0 0 0 Z " fill="#E94F50" transform="translate(179,58)"/>
<path d="M0 0 C0 2 0 4 0 6 C-4.0761834 9.41873446 -8.82590677 9.95933915 -14 10 C-14.66 9.67 -15.32 9.34 -16 9 C-15.67 7.02 -15.34 5.04 -15 3 C-14.67 3.66 -14.34 4.32 -14 5 C-8.97524332 5.29557392 -6.07647409 5.0282379 -2 2 C-1.34 1.34 -0.68 0.68 0 0 Z " fill="#5C5999" transform="translate(141,115)"/>
<path d="M0 0 C0 0.33 0 0.66 0 1 C-5.94 1.33 -11.88 1.66 -18 2 C-18 2.66 -18 3.32 -18 4 C-11.73 4 -5.46 4 1 4 C1 4.33 1 4.66 1 5 C-11.375 5.99 -11.375 5.99 -24 7 C-23.01 6.67 -22.02 6.34 -21 6 C-21.33 5.34 -21.66 4.68 -22 4 C-24.02463255 3.34786708 -24.02463255 3.34786708 -26 3 C-17.19421143 0.81157917 -9.08009321 -0.4490156 0 0 Z " fill="#8F90C8" transform="translate(91,45)"/>
<path d="M0 0 C0.33 0.99 0.66 1.98 1 3 C-0.07421875 4.97265625 -0.07421875 4.97265625 -1.6875 7.0625 C-2.20699219 7.75472656 -2.72648438 8.44695312 -3.26171875 9.16015625 C-5.08675323 11.09182196 -6.50615196 12.10099572 -9 13 C-9.66 12.67 -10.32 12.34 -11 12 C-10.25 5.25 -10.25 5.25 -8 3 C-7.67 3.66 -7.34 4.32 -7 5 C-5.35 5 -3.7 5 -2 5 C-1.855625 4.360625 -1.71125 3.72125 -1.5625 3.0625 C-1 1 -1 1 0 0 Z " fill="#32308F" transform="translate(227,114)"/>
<path d="M0 0 C0.33 0.99 0.66 1.98 1 3 C-0.78174788 5.30142435 -2.16304165 6.80034391 -5.046875 7.48828125 C-7.0246611 7.72323102 -9.01271872 7.86751458 -11 8 C-10.25 3.25 -10.25 3.25 -8 1 C-5.1244315 0.04147717 -3.12889911 0 0 0 Z " fill="#141481" transform="translate(290,94)"/>
<path d="M0 0 C2.33294775 -0.04241723 4.66702567 -0.04092937 7 0 C8 1 8 1 8.0625 3.5625 C8.041875 4.366875 8.02125 5.17125 8 6 C7.34 6 6.68 6 6 6 C6.66 7.98 7.32 9.96 8 12 C7.34 12 6.68 12 6 12 C5.34 10.35 4.68 8.7 4 7 C3.34 7 2.68 7 2 7 C2 8.65 2 10.3 2 12 C1.34 12 0.68 12 0 12 C0 8.04 0 4.08 0 0 Z M2 2 C2 3.32 2 4.64 2 6 C3.32 5.67 4.64 5.34 6 5 C6 4.01 6 3.02 6 2 C4.68 2 3.36 2 2 2 Z " fill="#B7B6C8" transform="translate(132,140)"/>
<path d="M0 0 C0.33 0 0.66 0 1 0 C1 1.98 1 3.96 1 6 C1.99 5.67 2.98 5.34 4 5 C4.66 5.33 5.32 5.66 6 6 C6 5.34 6 4.68 6 4 C6.99 4.33 7.98 4.66 9 5 C7.92598892 7.91517292 7.22189824 9.77810176 5 12 C2.67316333 11.77482226 1.15275947 11.0865637 -0.875 9.9375 C-2.3249598 7.44034701 -1.87224747 6.56120261 -1.1875 3.8125 C-0.795625 2.554375 -0.40375 1.29625 0 0 Z " fill="#414194" transform="translate(96,114)"/>
<path d="M0 0 C3.22653081 0.08326531 4.43940051 0.26010508 7.25 2 C8.625 4.375 8.625 4.375 8.375 7.625 C8.1275 8.5325 7.88 9.44 7.625 10.375 C7.295 9.715 6.965 9.055 6.625 8.375 C5.635 8.375 4.645 8.375 3.625 8.375 C3.625 7.385 3.625 6.395 3.625 5.375 C1.645 5.375 -0.335 5.375 -2.375 5.375 C-2.375 4.715 -2.375 4.055 -2.375 3.375 C-1.055 3.045 0.265 2.715 1.625 2.375 C-1.015 2.375 -3.655 2.375 -6.375 2.375 C-3.98213116 -0.01786884 -3.28052906 0.05449384 0 0 Z " fill="#474790" transform="translate(180.375,84.625)"/>
<path d="M0 0 C0.33 0 0.66 0 1 0 C1.33 2.97 1.66 5.94 2 9 C4.97 9.33 7.94 9.66 11 10 C11 10.99 11 11.98 11 13 C5.16605611 14.10643764 2.23420787 14.27137992 -3 11 C-2.34 10.67 -1.68 10.34 -1 10 C-0.53248212 7.64400765 -0.53248212 7.64400765 -0.375 4.9375 C-0.30023438 4.01839844 -0.22546875 3.09929687 -0.1484375 2.15234375 C-0.09945312 1.44207031 -0.05046875 0.73179688 0 0 Z " fill="#5B599E" transform="translate(156,114)"/>
<path d="M0 0 C0.33 0.66 0.66 1.32 1 2 C3.64 1.67 6.28 1.34 9 1 C7.73058503 4.91402949 6.48832306 6.79072873 3 9 C3 7.68 3 6.36 3 5 C2.44570312 5.30035156 1.89140625 5.60070312 1.3203125 5.91015625 C0.59585938 6.29042969 -0.12859375 6.67070313 -0.875 7.0625 C-1.95394531 7.63677734 -1.95394531 7.63677734 -3.0546875 8.22265625 C-3.69664063 8.47917969 -4.33859375 8.73570313 -5 9 C-5.66 8.67 -6.32 8.34 -7 8 C-4.69 5.36 -2.38 2.72 0 0 Z " fill="#262689" transform="translate(82,109)"/>
<path d="M0 0 C0.66 0 1.32 0 2 0 C2 1.65 2 3.3 2 5 C3.65 5 5.3 5 7 5 C7 3.35 7 1.7 7 0 C7.66 0 8.32 0 9 0 C9 3.96 9 7.92 9 12 C8.34 12 7.68 12 7 12 C7 10.35 7 8.7 7 7 C5.35 7 3.7 7 2 7 C2 8.65 2 10.3 2 12 C1.34 12 0.68 12 0 12 C0 8.04 0 4.08 0 0 Z " fill="#C2C1D1" transform="translate(253,140)"/>
<path d="M0 0 C3.5 0.3125 3.5 0.3125 7 1 C8.50662097 4.01324195 8.17770373 6.68286377 8 10 C6 12 6 12 2.375 12.125 C1.26125 12.08375 0.1475 12.0425 -1 12 C-1.02687279 10.18757948 -1.04633715 8.37504767 -1.0625 6.5625 C-1.07410156 5.55316406 -1.08570312 4.54382813 -1.09765625 3.50390625 C-1 1 -1 1 0 0 Z M1 2 C1 4.97 1 7.94 1 11 C2.65 10.67 4.3 10.34 6 10 C6 7.69 6 5.38 6 3 C4.35 2.67 2.7 2.34 1 2 Z " fill="#B9B8CA" transform="translate(102,140)"/>
<path d="M0 0 C1.98 0 3.96 0 6 0 C6.66 0.66 7.32 1.32 8 2 C7.625 3.9375 7.625 3.9375 7 6 C6.84188612 9.05270463 6.84188612 9.05270463 8 12 C5 11 5 11 3 8 C2.67 9.32 2.34 10.64 2 12 C1.34 12 0.68 12 0 12 C0 8.04 0 4.08 0 0 Z M2 2 C2.33 3.32 2.66 4.64 3 6 C3.99 5.67 4.98 5.34 6 5 C6 4.01 6 3.02 6 2 C4.68 2 3.36 2 2 2 Z " fill="#B9B8C7" transform="translate(183,140)"/>
<path d="M0 0 C1.32 0.66 2.64 1.32 4 2 C3.67 4.97 3.34 7.94 3 11 C2.67 11 2.34 11 2 11 C1.67 9.35 1.34 7.7 1 6 C0.44570313 6.5053125 -0.10859375 7.010625 -0.6796875 7.53125 C-1.40414063 8.1809375 -2.12859375 8.830625 -2.875 9.5 C-3.59429687 10.1496875 -4.31359375 10.799375 -5.0546875 11.46875 C-7 13 -7 13 -9 13 C-7.47987323 7.59510481 -3.72614782 4.01507372 0 0 Z " fill="#343079" transform="translate(296,109)"/>
<path d="M0 0 C0.66 0.66 1.32 1.32 2 2 C1.625 4.625 1.625 4.625 1 7 C-3.92737019 8.97094808 -7.78020872 9.1799928 -13 9 C-13 8.01 -13 7.02 -13 6 C-11.96939453 5.85304688 -11.96939453 5.85304688 -10.91796875 5.703125 C-10.01691406 5.55359375 -9.11585937 5.4040625 -8.1875 5.25 C-7.29417969 5.11078125 -6.40085937 4.9715625 -5.48046875 4.828125 C-2.49427342 3.831159 -1.61619656 2.6417565 0 0 Z " fill="#5B579A" transform="translate(104,64)"/>
<path d="M0 0 C3.875 0.875 3.875 0.875 5 2 C5.36090226 9.45864662 5.36090226 9.45864662 3 13 C2.34 13 1.68 13 1 13 C-0.00496852 9.98509443 -0.10335303 7.95818308 -0.0625 4.8125 C-0.05347656 3.91144531 -0.04445313 3.01039062 -0.03515625 2.08203125 C-0.02355469 1.39496094 -0.01195313 0.70789062 0 0 Z " fill="#0F0F74" transform="translate(105,56)"/>
<path d="M0 0 C3.5420064 0.30872347 7.08353306 0.62265332 10.625 0.9375 C11.62402344 1.02451172 12.62304688 1.11152344 13.65234375 1.20117188 C18.47482126 1.63232053 23.23730947 2.09785214 28 3 C25.6870518 5.3129482 24.52095125 5.49580975 21.375 6.125 C20.55773437 6.29257812 19.74046875 6.46015625 18.8984375 6.6328125 C17.95871094 6.81457031 17.95871094 6.81457031 17 7 C17 6.01 17 5.02 17 4 C16.10796875 3.96261719 15.2159375 3.92523437 14.296875 3.88671875 C13.12640625 3.82097656 11.9559375 3.75523438 10.75 3.6875 C9.00976562 3.60048828 9.00976562 3.60048828 7.234375 3.51171875 C3.8148183 2.97070193 2.61160048 2.13247606 0 0 Z " fill="#F59997" transform="translate(274,22)"/>
<path d="M0 0 C6.27 0 12.54 0 19 0 C19 0.33 19 0.66 19 1 C13.555 1.495 13.555 1.495 8 2 C8.99 2.99 9.98 3.98 11 5 C10 6 10 6 7.1875 6.25 C3.70510111 5.97687067 2.3999866 5.49229378 0 3 C0 2.01 0 1.02 0 0 Z " fill="#8E8EBF" transform="translate(30,132)"/>
<path d="M0 0 C1.125 3.75 1.125 3.75 0 6 C-0.66 6 -1.32 6 -2 6 C-2 6.99 -2 7.98 -2 9 C-1.071875 8.7215625 -1.071875 8.7215625 -0.125 8.4375 C2 8 2 8 4 9 C3.67 10.65 3.34 12.3 3 14 C2.34 13.67 1.68 13.34 1 13 C1 12.01 1 11.02 1 10 C-2.2985139 10.72268235 -2.2985139 10.72268235 -3.6875 14.0625 C-4.120625 15.031875 -4.55375 16.00125 -5 17 C-5.66 16.67 -6.32 16.34 -7 16 C-5.26017005 10.18738629 -3.1889511 5.16830006 0 0 Z " fill="#3E3D93" transform="translate(108,89)"/>
<path d="M0 0 C2.0625 0.3125 2.0625 0.3125 5 1 C7.99492809 1.38190358 10.99659944 1.69246225 14 2 C14 2.66 14 3.32 14 4 C15.65 4 17.3 4 19 4 C19 4.66 19 5.32 19 6 C19.99 6.33 20.98 6.66 22 7 C13.68383188 6.41640925 5.98540674 4.26200586 -2 2 C-1.34 1.34 -0.68 0.68 0 0 Z " fill="#4E4E9A" transform="translate(49,85)"/>
<path d="M0 0 C0.8125 1.6875 0.8125 1.6875 1 4 C-2.21971104 7.80511304 -6.14251283 10.86018486 -10 14 C-10.66 13.67 -11.32 13.34 -12 13 C-11.67 12.34 -11.34 11.68 -11 11 C-11.66 10.67 -12.32 10.34 -13 10 C-12.48050781 9.69707031 -11.96101563 9.39414063 -11.42578125 9.08203125 C-7.02175659 6.43636024 -3.46723222 3.79228524 0 0 Z " fill="#7773A6" transform="translate(268,110)"/>
<path d="M0 0 C1.32 0 2.64 0 4 0 C3.69121904 3.60244452 3.00552268 4.99345998 0.625 7.8125 C-2 10 -2 10 -5 10 C-4.49967382 5.62214594 -3.11840922 3.11840922 0 0 Z " fill="#3D3B8D" transform="translate(183,93)"/>
<path d="M0 0 C2.31 0 4.62 0 7 0 C7 0.66 7 1.32 7 2 C5.35 2 3.7 2 2 2 C2 2.99 2 3.98 2 5 C3.32 5 4.64 5 6 5 C6 5.66 6 6.32 6 7 C4.68 7 3.36 7 2 7 C2 8.32 2 9.64 2 11 C3.65 11 5.3 11 7 11 C7 11.33 7 11.66 7 12 C4.69 12 2.38 12 0 12 C0 8.04 0 4.08 0 0 Z " fill="#B7B6C9" transform="translate(226,140)"/>
<path d="M0 0 C0.66 0 1.32 0 2 0 C3.32 2.31 4.64 4.62 6 7 C6.33 4.69 6.66 2.38 7 0 C9 2 9 2 9.1953125 4.3828125 C9.17210938 5.28773438 9.14890625 6.19265625 9.125 7.125 C9.10695313 8.03507813 9.08890625 8.94515625 9.0703125 9.8828125 C9.04710938 10.58148438 9.02390625 11.28015625 9 12 C8.01 12 7.02 12 6 12 C4.02 8.535 4.02 8.535 2 5 C1.67 7.31 1.34 9.62 1 12 C0.67 12 0.34 12 0 12 C0 8.04 0 4.08 0 0 Z " fill="#AAA9BA" transform="translate(86,140)"/>
<path d="M0 0 C0.66 0.33 1.32 0.66 2 1 C2 1.33 2 1.66 2 2 C2.65035814 3.34136367 3.3162955 4.67532254 4 6 C3.01 7.32 2.02 8.64 1 10 C0.67 9.01 0.34 8.02 0 7 C-0.66 7 -1.32 7 -2 7 C-2.33 7.99 -2.66 8.98 -3 10 C-3.99 10 -4.98 10 -6 10 C-4.6302836 6.00499382 -2.74277578 3.19990508 0 0 Z " fill="#3F3E94" transform="translate(44,59)"/>
<path d="M0 0 C2.31 0.33 4.62 0.66 7 1 C8.52888746 4.46011373 9.25669488 6.21280236 8.0625 9.875 C6 12 6 12 2.3125 12.3125 C1.219375 12.209375 0.12625 12.10625 -1 12 C-0.67 8.04 -0.34 4.08 0 0 Z M1 2 C1 4.64 1 7.28 1 10 C2.32 10.33 3.64 10.66 5 11 C7.33391203 8.21885944 7.33391203 8.21885944 6.625 5.3125 C6.41875 4.549375 6.2125 3.78625 6 3 C4.35 2.67 2.7 2.34 1 2 Z " fill="#A5A3B5" transform="translate(211,140)"/>
<path d="M0 0 C0.66 0 1.32 0 2 0 C2.53190541 1.43344 3.05015258 2.87195367 3.5625 4.3125 C3.85253906 5.11300781 4.14257812 5.91351563 4.44140625 6.73828125 C5 9 5 9 4 12 C3.67 10.68 3.34 9.36 3 8 C1.68 8 0.36 8 -1 8 C-1.33 9.32 -1.66 10.64 -2 12 C-2.66 12 -3.32 12 -4 12 C-3.52494322 10.18641846 -3.04483958 8.37415821 -2.5625 6.5625 C-2.29566406 5.55316406 -2.02882812 4.54382813 -1.75390625 3.50390625 C-1 1 -1 1 0 0 Z M0 4 C0 4.99 0 5.98 0 7 C0.66 6.67 1.32 6.34 2 6 C1.34 5.34 0.68 4.68 0 4 Z " fill="#ADABBC" transform="translate(149,140)"/>
<path d="M0 0 C1.875 0.3125 1.875 0.3125 4 1 C6.28062828 4.42094242 6.21925007 5.68187222 6.125 9.6875 C6.10695312 10.68136719 6.08890625 11.67523438 6.0703125 12.69921875 C6.03550781 13.83810547 6.03550781 13.83810547 6 15 C3.95780294 13.30820672 3.08206694 12.36272334 2.48828125 9.73828125 C2.43027344 8.93777344 2.37226563 8.13726562 2.3125 7.3125 C2.24675781 6.50425781 2.18101562 5.69601563 2.11328125 4.86328125 C2.07589844 4.24839844 2.03851563 3.63351563 2 3 C1.34 3 0.68 3 0 3 C0 2.01 0 1.02 0 0 Z " fill="#2E2B80" transform="translate(148,84)"/>
<path d="M0 0 C1.65 0 3.3 0 5 0 C5 0.99 5 1.98 5 3 C3.68 2.67 2.36 2.34 1 2 C1.433125 2.433125 1.86625 2.86625 2.3125 3.3125 C2.869375 3.869375 3.42625 4.42625 4 5 C4.86625 5.7115625 4.86625 5.7115625 5.75 6.4375 C6.1625 6.953125 6.575 7.46875 7 8 C6.6875 10.1875 6.6875 10.1875 6 12 C3.69 12 1.38 12 -1 12 C-1 11.34 -1 10.68 -1 10 C1.97 10.495 1.97 10.495 5 11 C3.75453595 7.26360784 2.36595047 6.81243487 -1 5 C-0.67 3.35 -0.34 1.7 0 0 Z " fill="#B8B7C4" transform="translate(240,140)"/>
<path d="M0 0 C2 1 2 1 2.8515625 3.50390625 C3.10679688 4.51324219 3.36203125 5.52257812 3.625 6.5625 C3.88539062 7.57441406 4.14578125 8.58632812 4.4140625 9.62890625 C4.60742188 10.41136719 4.80078125 11.19382813 5 12 C4.34 12 3.68 12 3 12 C2.67 11.01 2.34 10.02 2 9 C1.01 9 0.02 9 -1 9 C-1.33 9.99 -1.66 10.98 -2 12 C-2.66 12 -3.32 12 -4 12 C-3.71640113 10.5608866 -3.42278601 9.12374482 -3.125 7.6875 C-2.96257812 6.88699219 -2.80015625 6.08648437 -2.6328125 5.26171875 C-2 3 -2 3 0 0 Z M0 3 C-0.33 4.32 -0.66 5.64 -1 7 C-0.01 6.67 0.98 6.34 2 6 C1.34 5.01 0.68 4.02 0 3 Z " fill="#AEADBA" transform="translate(75,140)"/>
<path d="M0 0 C2.09350689 3.4019487 2.17942163 6.05272412 2 10 C1.34 10 0.68 10 0 10 C-0.33 11.65 -0.66 13.3 -1 15 C-1.33 15 -1.66 15 -2 15 C-2 12.69 -2 10.38 -2 8 C-2.99 7.67 -3.98 7.34 -5 7 C-1.125 1.125 -1.125 1.125 0 0 Z " fill="#403F96" transform="translate(272,106)"/>
<path d="M0 0 C0.66 0 1.32 0 2 0 C1.78537109 1.04220703 1.78537109 1.04220703 1.56640625 2.10546875 C0.96733421 5.16693345 0.44485302 8.23455833 -0.0625 11.3125 C-0.23910156 12.38113281 -0.41570312 13.44976562 -0.59765625 14.55078125 C-0.73042969 15.35902344 -0.86320312 16.16726562 -1 17 C-1.33 17 -1.66 17 -2 17 C-2.33 14.36 -2.66 11.72 -3 9 C-4.65 9.33 -6.3 9.66 -8 10 C-8 8.02 -8 6.04 -8 4 C-7.01 4.33 -6.02 4.66 -5 5 C-5 5.66 -5 6.32 -5 7 C-1.88794071 5.01487051 -1.88794071 5.01487051 -0.25 1.8125 C-0.1675 1.214375 -0.085 0.61625 0 0 Z " fill="#4C4C9D" transform="translate(127,100)"/>
<path d="M0 0 C2.4375 1.25 2.4375 1.25 3.4375 4.25 C2.22265625 6.51171875 2.22265625 6.51171875 0.5 8.9375 C-0.34884766 10.14986328 -0.34884766 10.14986328 -1.21484375 11.38671875 C-1.65957031 12.00160156 -2.10429687 12.61648437 -2.5625 13.25 C-3.2225 12.92 -3.8825 12.59 -4.5625 12.25 C-4.2325 10.6 -3.9025 8.95 -3.5625 7.25 C-2.9025 7.25 -2.2425 7.25 -1.5625 7.25 C-1.5625 6.59 -1.5625 5.93 -1.5625 5.25 C-0.9025 5.25 -0.2425 5.25 0.4375 5.25 C-0.23118314 2.13667752 -0.23118314 2.13667752 -2.625 1.0625 C-3.264375 0.794375 -3.90375 0.52625 -4.5625 0.25 C-2.5625 -0.75 -2.5625 -0.75 0 0 Z " fill="#35368A" transform="translate(134.5625,85.75)"/>
<path d="M0 0 C-0.33 1.98 -0.66 3.96 -1 6 C-1.66 6 -2.32 6 -3 6 C-3 7.65 -3 9.3 -3 11 C-3.99 11 -4.98 11 -6 11 C-6.33 9.35 -6.66 7.7 -7 6 C-6.34 6 -5.68 6 -5 6 C-5 4.35 -5 2.7 -5 1 C-3 0 -3 0 0 0 Z " fill="#0A097D" transform="translate(246,79)"/>
<path d="M0 0 C0.33 0 0.66 0 1 0 C1 1.65 1 3.3 1 5 C0.34 5 -0.32 5 -1 5 C-0.649375 5.763125 -0.29875 6.52625 0.0625 7.3125 C1 10 1 10 0 13 C-0.66 12.67 -1.32 12.34 -2 12 C-2.33 12.99 -2.66 13.98 -3 15 C-3.9212945 11.89063107 -4.38512289 9.23503229 -4 6 C-2.0625 2.6875 -2.0625 2.6875 0 0 Z " fill="#292889" transform="translate(240,80)"/>
<path d="M0 0 C0.33 0 0.66 0 1 0 C1.99 7.26 2.98 14.52 4 22 C3.34 22 2.68 22 2 22 C1.67 23.32 1.34 24.64 1 26 C0.34 24.35 -0.32 22.7 -1 21 C-0.01 20.67 0.98 20.34 2 20 C2 18.35 2 16.7 2 15 C1.01 14.67 0.02 14.34 -1 14 C-0.34 14 0.32 14 1 14 C0.835 13.175 0.67 12.35 0.5 11.5 C-0.05896045 7.58727683 -0.06807187 3.94816827 0 0 Z " fill="#7877B7" transform="translate(16,98)"/>
<path d="M0 0 C3.33773709 3.64116773 3.97864902 7.28607242 5 12 C4.34 12 3.68 12 3 12 C2.67 11.01 2.34 10.02 2 9 C-0.01508358 8.26676204 -0.01508358 8.26676204 -2 8 C-2.33 9.32 -2.66 10.64 -3 12 C-3.66 11.67 -4.32 11.34 -5 11 C-4.35731563 9.35293447 -3.71076198 7.70737825 -3.0625 6.0625 C-2.70285156 5.14597656 -2.34320313 4.22945312 -1.97265625 3.28515625 C-1 1 -1 1 0 0 Z M0 3 C-0.33 4.32 -0.66 5.64 -1 7 C-0.01 6.67 0.98 6.34 2 6 C1.34 5.01 0.68 4.02 0 3 Z " fill="#ACACBF" transform="translate(200,140)"/>
<path d="M0 0 C2.625 0.375 2.625 0.375 5 1 C4.34 2.32 3.68 3.64 3 5 C3 4.34 3 3.68 3 3 C2.34 3 1.68 3 1 3 C0.9175 3.78375 0.835 4.5675 0.75 5.375 C0 8 0 8 -2.0625 9.3125 C-2.701875 9.539375 -3.34125 9.76625 -4 10 C-4.33 9.01 -4.66 8.02 -5 7 C-3.58511552 4.23760649 -2.19636905 2.19636905 0 0 Z " fill="#0D0C82" transform="translate(126,97)"/>
<path d="M0 0 C2.18975773 3.28463659 2.99806563 6.20696275 4 10 C4.33 8.02 4.66 6.04 5 4 C5.33 4 5.66 4 6 4 C6.21755666 9.4389165 6.10428384 13.87080814 4 19 C3.34 17.68 2.68 16.36 2 15 C2.66 15 3.32 15 4 15 C3.67 13.68 3.34 12.36 3 11 C2.01 11.33 1.02 11.66 0 12 C0 8.04 0 4.08 0 0 Z " fill="#7E80BE" transform="translate(149,87)"/>
<path d="M0 0 C1.32 0 2.64 0 4 0 C4 0.66 4 1.32 4 2 C8.29 2 12.58 2 17 2 C16.01 3.485 16.01 3.485 15 5 C8.58878627 5.76065248 5.31609072 4.54406048 0 1 C0 0.67 0 0.34 0 0 Z " fill="#E63C3B" transform="translate(178,35)"/>
<path d="M0 0 C0.2475 0.598125 0.495 1.19625 0.75 1.8125 C2.16370012 4.28647521 3.65055383 5.43370255 6 7 C4.68 9.31 3.36 11.62 2 14 C1.67 14 1.34 14 1 14 C0.92652344 12.93458984 0.92652344 12.93458984 0.8515625 11.84765625 C0.73941406 10.46900391 0.73941406 10.46900391 0.625 9.0625 C0.55539062 8.14597656 0.48578125 7.22945313 0.4140625 6.28515625 C0.27742188 5.53105469 0.14078125 4.77695313 0 4 C-0.66 3.67 -1.32 3.34 -2 3 C-1.34 2.01 -0.68 1.02 0 0 Z " fill="#36358F" transform="translate(305,97)"/>
<path d="M0 0 C0 1.65 0 3.3 0 5 C-3.07322544 5.91058531 -5.80097361 6.08886184 -9 6 C-5.61538462 0 -5.61538462 0 0 0 Z " fill="#1D1B82" transform="translate(212,87)"/>
<path d="M0 0 C0.94875 0.04125 1.8975 0.0825 2.875 0.125 C3.205 1.445 3.535 2.765 3.875 4.125 C1.875 5.125 1.875 5.125 -0.5625 5.0625 C-3.37028606 4.90267869 -3.37028606 4.90267869 -6.125 7.125 C-5.03177966 0.20127119 -5.03177966 0.20127119 0 0 Z " fill="#16147D" transform="translate(295.125,85.875)"/>
<path d="M0 0 C0.99 0.33 1.98 0.66 3 1 C2.57847656 1.44730469 2.15695313 1.89460938 1.72265625 2.35546875 C-2.5377979 6.98399766 -2.5377979 6.98399766 -4 13 C-4.99 12.67 -5.98 12.34 -7 12 C-6.34 10.02 -5.68 8.04 -5 6 C-4.34 6 -3.68 6 -3 6 C-2.814375 5.071875 -2.814375 5.071875 -2.625 4.125 C-2 2 -2 2 0 0 Z " fill="#EC191A" transform="translate(182,54)"/>
<path d="M0 0 C0.33 0.66 0.66 1.32 1 2 C1.66 2 2.32 2 3 2 C2 5 2 5 0.125 6.0625 C-0.57625 6.371875 -1.2775 6.68125 -2 7 C-2.99 7.66 -3.98 8.32 -5 9 C-5.99 8.67 -6.98 8.34 -8 8 C-5.33333333 5.33333333 -2.66666667 2.66666667 0 0 Z " fill="#555395" transform="translate(218,112)"/>
<path d="M0 0 C0 0.99 0 1.98 0 3 C-1.65 3.33 -3.3 3.66 -5 4 C-5 4.66 -5 5.32 -5 6 C-6.32 5.67 -7.64 5.34 -9 5 C-9 6.32 -9 7.64 -9 9 C-10.32 9 -11.64 9 -13 9 C-12.67 8.01 -12.34 7.02 -12 6 C-11.34 6 -10.68 6 -10 6 C-10 5.34 -10 4.68 -10 4 C-8.71086513 3.32845067 -7.41859796 2.66291141 -6.125 2 C-5.40570313 1.62875 -4.68640625 1.2575 -3.9453125 0.875 C-2 0 -2 0 0 0 Z " fill="#02027D" transform="translate(85,114)"/>
<path d="M0 0 C2.475 0.99 2.475 0.99 5 2 C5 2.99 5 3.98 5 5 C3.66666667 6.33333333 2.33333333 7.66666667 1 9 C-0.32 9 -1.64 9 -3 9 C-3 8.01 -3 7.02 -3 6 C-2.34 6 -1.68 6 -1 6 C-0.67 4.02 -0.34 2.04 0 0 Z " fill="#02027D" transform="translate(109,89)"/>
<path d="M0 0 C0.99 0.66 1.98 1.32 3 2 C2.50168276 5.68754757 1.89932357 7.60490662 -1 10 C-0.67 7.69 -0.34 5.38 0 3 C-0.99 3 -1.98 3 -3 3 C-3 3.99 -3 4.98 -3 6 C-4.32 5.67 -5.64 5.34 -7 5 C-2.25 1.125 -2.25 1.125 0 0 Z " fill="#6261A0" transform="translate(258,60)"/>
<path d="M0 0 C0 0.33 0 0.66 0 1 C-0.825 1.2475 -1.65 1.495 -2.5 1.75 C-5.92689857 2.97389235 -8.97573322 4.47012012 -12.16796875 6.1953125 C-14 7 -14 7 -17 7 C-15.5433323 5.85204994 -14.08461063 4.70670581 -12.625 3.5625 C-11.40683594 2.60537109 -11.40683594 2.60537109 -10.1640625 1.62890625 C-6.34022091 -1.2493283 -4.65117727 -0.91001294 0 0 Z " fill="#EA5C59" transform="translate(177,16)"/>
<path d="M0 0 C0.33 0 0.66 0 1 0 C1 1.65 1 3.3 1 5 C2.98 5 4.96 5 7 5 C7 3.35 7 1.7 7 0 C7.33 0 7.66 0 8 0 C8 3.96 8 7.92 8 12 C7.67 12 7.34 12 7 12 C7 10.35 7 8.7 7 7 C5.02 7 3.04 7 1 7 C1 8.65 1 10.3 1 12 C0.67 12 0.34 12 0 12 C0 8.04 0 4.08 0 0 Z " fill="#9997A8" transform="translate(117,140)"/>
<path d="M0 0 C1.98 0 3.96 0 6 0 C6.66 0.66 7.32 1.32 8 2 C7.46428571 5.53571429 7.46428571 5.53571429 6 7 C4.33382885 7.04063832 2.66611905 7.042721 1 7 C1 8.65 1 10.3 1 12 C0.67 12 0.34 12 0 12 C0 8.04 0 4.08 0 0 Z M1 2 C1 3.32 1 4.64 1 6 C2.65 5.67 4.3 5.34 6 5 C6 4.01 6 3.02 6 2 C4.35 2 2.7 2 1 2 Z " fill="#9D9DAD" transform="translate(169,140)"/>
<path d="M0 0 C0.99 0 1.98 0 3 0 C3.6875 2.8125 3.6875 2.8125 4 6 C2.5625 7.875 2.5625 7.875 1 9 C1 8.34 1 7.68 1 7 C0.01 6.67 -0.98 6.34 -2 6 C-1.125 1.125 -1.125 1.125 0 0 Z " fill="#1E1C86" transform="translate(106,99)"/>
<path d="M0 0 C0.33 0.99 0.66 1.98 1 3 C0.67 3.66 0.34 4.32 0 5 C-0.66 5.144375 -1.32 5.28875 -2 5.4375 C-2.66 5.623125 -3.32 5.80875 -4 6 C-4.33 6.99 -4.66 7.98 -5 9 C-6.33333333 9.33333333 -7.66666667 9.66666667 -9 10 C-9.33 10.99 -9.66 11.98 -10 13 C-10.66 12.67 -11.32 12.34 -12 12 C-10.56665422 10.37133456 -9.12817021 8.74719006 -7.6875 7.125 C-6.88699219 6.22007813 -6.08648437 5.31515625 -5.26171875 4.3828125 C-3 2 -3 2 0 0 Z " fill="#515098" transform="translate(129,87)"/>
<path d="M0 0 C0.99 0.33 1.98 0.66 3 1 C3.33 3.31 3.66 5.62 4 8 C3.01 7.67 2.02 7.34 1 7 C0.67 7.66 0.34 8.32 0 9 C-0.99 8.01 -1.98 7.02 -3 6 C-2.34 5.34 -1.68 4.68 -1 4 C-0.3574765 1.93125966 -0.3574765 1.93125966 0 0 Z " fill="#08077C" transform="translate(249,69)"/>
<path d="M0 0 C0.66 0.33 1.32 0.66 2 1 C-0.10148204 4.98175544 -2.36905358 7.35039045 -6 10 C-6 9.34 -6 8.68 -6 8 C-6.66 7.67 -7.32 7.34 -8 7 C-5.36 4.69 -2.72 2.38 0 0 Z " fill="#EC3639" transform="translate(249,21)"/>
<path d="M0 0 C-0.33 0.99 -0.66 1.98 -1 3 C-0.01 3.66 0.98 4.32 2 5 C0.58622218 5.36552803 -0.83120576 5.71695495 -2.25 6.0625 C-3.03890625 6.25972656 -3.8278125 6.45695313 -4.640625 6.66015625 C-7.10394822 7.01497267 -8.65604132 6.76877544 -11 6 C-10.01 6 -9.02 6 -8 6 C-8 5.34 -8 4.68 -8 4 C-7.01 3.67 -6.02 3.34 -5 3 C-5.33 2.34 -5.66 1.68 -6 1 C-3 0 -3 0 0 0 Z " fill="#6767AA" transform="translate(63,125)"/>
<path d="M0 0 C3.96 0 7.92 0 12 0 C12 0.66 12 1.32 12 2 C10.02 2.33 8.04 2.66 6 3 C6 3.33 6 3.66 6 4 C3.69 4 1.38 4 -1 4 C-0.34 3.67 0.32 3.34 1 3 C0.67 2.01 0.34 1.02 0 0 Z " fill="#FB0201" transform="translate(241,7)"/>
<path d="M0 0 C0.33 0.66 0.66 1.32 1 2 C-0.3125 4 -0.3125 4 -2 6 C-2.99 6 -3.98 6 -5 6 C-5.33 7.32 -5.66 8.64 -6 10 C-7.65 10.33 -9.3 10.66 -11 11 C-7.6189962 6.86378916 -4.33409466 3.18683431 0 0 Z " fill="#E74948" transform="translate(209,3)"/>
<path d="M0 0 C0.66 0 1.32 0 2 0 C2 0.66 2 1.32 2 2 C2.66 2.33 3.32 2.66 4 3 C-0.10457614 5.98514628 -2.97745369 6.2954439 -8 6 C-8 5.67 -8 5.34 -8 5 C-6.35 5 -4.7 5 -3 5 C-3 4.34 -3 3.68 -3 3 C-4.32 3 -5.64 3 -7 3 C-6.67 2.34 -6.34 1.68 -6 1 C-4.7934375 1.0309375 -4.7934375 1.0309375 -3.5625 1.0625 C-1.06645115 1.29633621 -1.06645115 1.29633621 0 0 Z " fill="#6C6EA7" transform="translate(311,119)"/>
<path d="M0 0 C0.33 0 0.66 0 1 0 C1 1.98 1 3.96 1 6 C2.65 6 4.3 6 6 6 C5.67 7.32 5.34 8.64 5 10 C5 9.34 5 8.68 5 8 C4.34 8 3.68 8 3 8 C2.67 9.32 2.34 10.64 2 12 C2.66 12.33 3.32 12.66 4 13 C3.01 13 2.02 13 1 13 C-0.97387813 8.23947038 -1.0070238 5.03511899 0 0 Z " fill="#474595" transform="translate(246,110)"/>
<path d="M0 0 C2 2 2 2 2.125 4.625 C2.08375 5.40875 2.0425 6.1925 2 7 C1.01 6.67 0.02 6.34 -1 6 C-1 6.66 -1 7.32 -1 8 C-1.99 8 -2.98 8 -4 8 C-4.25 5.6875 -4.25 5.6875 -4 3 C-2 1.1875 -2 1.1875 0 0 Z " fill="#030278" transform="translate(315,87)"/>
<path d="M0 0 C2.64 0 5.28 0 8 0 C8.33 0.66 8.66 1.32 9 2 C8.01 2 7.02 2 6 2 C6 2.99 6 3.98 6 5 C4.02 5 2.04 5 0 5 C0 3.35 0 1.7 0 0 Z " fill="#191780" transform="translate(301,83)"/>
<path d="M0 0 C0.12375 0.639375 0.2475 1.27875 0.375 1.9375 C0.684375 2.9584375 0.684375 2.9584375 1 4 C1.66 4.33 2.32 4.66 3 5 C-2.75 10 -2.75 10 -5 10 C-3.84414715 6.08788267 -2.64465038 3.1254959 0 0 Z " fill="#E36160" transform="translate(132,50)"/>
<path d="M0 0 C1.89551022 -0.05441656 3.7914792 -0.09298035 5.6875 -0.125 C6.74324219 -0.14820313 7.79898438 -0.17140625 8.88671875 -0.1953125 C12.02251859 0.00141271 14.17645373 0.66942346 17 2 C17 2.99 17 3.98 17 5 C16.443125 4.7834375 15.88625 4.566875 15.3125 4.34375 C9.94811407 2.38647405 5.70147617 1.68901039 0 2 C0 1.34 0 0.68 0 0 Z " fill="#EA5C5B" transform="translate(201,47)"/>
<path d="M0 0 C4.62 0 9.24 0 14 0 C14 0.33 14 0.66 14 1 C11.03 1.66 8.06 2.32 5 3 C5 3.66 5 4.32 5 5 C3.68 4.67 2.36 4.34 1 4 C0.67 2.68 0.34 1.36 0 0 Z " fill="#202077" transform="translate(26,130)"/>
<path d="M0 0 C1.2065625 0.0309375 1.2065625 0.0309375 2.4375 0.0625 C1.206106 3.75668201 -0.77041354 5.41359746 -3.5625 8.0625 C-4.5525 7.7325 -5.5425 7.4025 -6.5625 7.0625 C-3.14390756 0.07668067 -3.14390756 0.07668067 0 0 Z " fill="#534F9A" transform="translate(118.5625,99.9375)"/>
<path d="M0 0 C-0.33 2.31 -0.66 4.62 -1 7 C-3.475 6.01 -3.475 6.01 -6 5 C-6 5.99 -6 6.98 -6 8 C-6.66 8 -7.32 8 -8 8 C-6.125 3.25 -6.125 3.25 -5 1 C-2 0 -2 0 0 0 Z " fill="#2B2989" transform="translate(234,97)"/>
<path d="M0 0 C0 0.99 0 1.98 0 3 C0.66 3.33 1.32 3.66 2 4 C2.33 4.66 2.66 5.32 3 6 C1.02 6.66 -0.96 7.32 -3 8 C-3 6.68 -3 5.36 -3 4 C-4.32 3.34 -5.64 2.68 -7 2 C-4.35261084 0.5393715 -3.10551666 0 0 0 Z " fill="#3F4094" transform="translate(301,83)"/>
<path d="M0 0 C2.97 0.495 2.97 0.495 6 1 C6 1.99 6 2.98 6 4 C3.69 4 1.38 4 -1 4 C-1 4.66 -1 5.32 -1 6 C-2.32 6 -3.64 6 -5 6 C-5 4 -5 4 -3 2 C-2.01 2 -1.02 2 0 2 C0 1.34 0 0.68 0 0 Z " fill="#2F2D85" transform="translate(159,107)"/>
<path d="M0 0 C0.66 1.32 1.32 2.64 2 4 C1.01 4.495 1.01 4.495 0 5 C-1.13350534 7.01669827 -1.13350534 7.01669827 -2 9 C-2.66 8.67 -3.32 8.34 -4 8 C-4.25 5.6875 -4.25 5.6875 -4 3 C-2 1.1875 -2 1.1875 0 0 Z M2 1 C4 2 4 2 4 2 Z " fill="#12117F" transform="translate(277,102)"/>
<path d="M0 0 C0.99 0.33 1.98 0.66 3 1 C0.525 5.455 0.525 5.455 -2 10 C-2.33 10 -2.66 10 -3 10 C-3.33 7.69 -3.66 5.38 -4 3 C-2.68 2.67 -1.36 2.34 0 2 C0 1.34 0 0.68 0 0 Z " fill="#2D2D88" transform="translate(314,93)"/>
<path d="M0 0 C0.66 0.33 1.32 0.66 2 1 C1.67 1.66 1.34 2.32 1 3 C1.66 3.33 2.32 3.66 3 4 C-1.30769231 7.07692308 -1.30769231 7.07692308 -4.8125 6.6875 C-5.534375 6.460625 -6.25625 6.23375 -7 6 C-4.74259377 3.66475218 -2.7194239 1.81294927 0 0 Z " fill="#6A68A6" transform="translate(255,88)"/>
<path d="M0 0 C1.5 1.25 1.5 1.25 3 3 C3 4.32 3 5.64 3 7 C1.68 7 0.36 7 -1 7 C-1.33 6.34 -1.66 5.68 -2 5 C-3.98 5.99 -3.98 5.99 -6 7 C-6.33 6.01 -6.66 5.02 -7 4 C-4.69 3.34 -2.38 2.68 0 2 C0 1.34 0 0.68 0 0 Z " fill="#5356A6" transform="translate(222,86)"/>
<path d="M0 0 C1.41791408 0.45445964 2.83428046 0.91374944 4.25 1.375 C5.43335938 1.75785156 5.43335938 1.75785156 6.640625 2.1484375 C8.86627958 2.95173667 10.90931672 3.89711662 13 5 C10.69 5.33 8.38 5.66 6 6 C6 5.34 6 4.68 6 4 C4.68 4.33 3.36 4.66 2 5 C1.34 3.35 0.68 1.7 0 0 Z " fill="#454498" transform="translate(48,77)"/>
<path d="M0 0 C0.66 0.33 1.32 0.66 2 1 C2 1.99 2 2.98 2 4 C-4.75 8 -4.75 8 -7 8 C-6.01347016 4.68167234 -5.31268497 3.23451373 -2.5 1.125 C-1.675 0.75375 -0.85 0.3825 0 0 Z " fill="#E04747" transform="translate(172,66)"/>
<path d="M0 0 C0.33 0.99 0.66 1.98 1 3 C2.32 3 3.64 3 5 3 C5 4.65 5 6.3 5 8 C3.68 8 2.36 8 1 8 C-1.125 3.375 -1.125 3.375 0 0 Z " fill="#2C2A88" transform="translate(121,114)"/>
<path d="M0 0 C0.66 0.33 1.32 0.66 2 1 C1.67 1.99 1.34 2.98 1 4 C0.01 4.33 -0.98 4.66 -2 5 C-2.268125 5.639375 -2.53625 6.27875 -2.8125 6.9375 C-4 9 -4 9 -7.125 10.25 C-8.07375 10.4975 -9.0225 10.745 -10 11 C-6.79239749 7.19364503 -3.59253891 3.45436433 0 0 Z " fill="#5959A2" transform="translate(202,91)"/>
<path d="M0 0 C-1.55701931 4.67105792 -4.08447373 8.08705685 -7 12 C-7.33 10.68 -7.66 9.36 -8 8 C-7.34 8 -6.68 8 -6 8 C-5.896875 7.05125 -5.79375 6.1025 -5.6875 5.125 C-4.89960329 1.54365133 -3.89650761 0 0 0 Z " fill="#444394" transform="translate(265,94)"/>
<path d="M0 0 C0.66 0.33 1.32 0.66 2 1 C2 2.65 2 4.3 2 6 C0.02 6.99 0.02 6.99 -2 8 C-2.66 7.34 -3.32 6.68 -4 6 C-2.25 1.125 -2.25 1.125 0 0 Z " fill="#15147C" transform="translate(167,92)"/>
<path d="M0 0 C0.66 0.33 1.32 0.66 2 1 C1 4 1 4 -1.1875 5.25 C-4.48226898 6.12860506 -6.70800962 5.76557916 -10 5 C-10 4.34 -10 3.68 -10 3 C-8.906875 2.87625 -7.81375 2.7525 -6.6875 2.625 C-2.92618198 2.24535199 -2.92618198 2.24535199 0 0 Z " fill="#EC4E4F" transform="translate(192,18)"/>
<path d="M0 0 C0.33 0.66 0.66 1.32 1 2 C1.66 2 2.32 2 3 2 C3 2.66 3 3.32 3 4 C4.32 4 5.64 4 7 4 C6.67 4.99 6.34 5.98 6 7 C3.69 6.67 1.38 6.34 -1 6 C-0.67 4.02 -0.34 2.04 0 0 Z " fill="#4B4D94" transform="translate(126,118)"/>
<path d="M0 0 C0.33 0.99 0.66 1.98 1 3 C-0.07421875 4.97265625 -0.07421875 4.97265625 -1.6875 7.0625 C-2.20699219 7.75472656 -2.72648438 8.44695312 -3.26171875 9.16015625 C-5.06223358 11.0658697 -6.60035853 11.99100043 -9 13 C-8.67 12.01 -8.34 11.02 -8 10 C-7.34 10 -6.68 10 -6 10 C-6 9.34 -6 8.68 -6 8 C-5.34 8 -4.68 8 -4 8 C-4 7.01 -4 6.02 -4 5 C-3.34 5 -2.68 5 -2 5 C-1.855625 4.360625 -1.71125 3.72125 -1.5625 3.0625 C-1 1 -1 1 0 0 Z " fill="#535199" transform="translate(227,114)"/>
<path d="M0 0 C0.99 0 1.98 0 3 0 C3.33 1.65 3.66 3.3 4 5 C3.34 5 2.68 5 2 5 C1.67 5.99 1.34 6.98 1 8 C1 7.01 1 6.02 1 5 C0.34 5 -0.32 5 -1 5 C-1.33 5.66 -1.66 6.32 -2 7 C-1.125 2.25 -1.125 2.25 0 0 Z " fill="#020279" transform="translate(221,114)"/>
<path d="M0 0 C1.32 0.66 2.64 1.32 4 2 C3.67 4.97 3.34 7.94 3 11 C2.67 11 2.34 11 2 11 C1.67 9.35 1.34 7.7 1 6 C0.01 6.495 0.01 6.495 -1 7 C-1.625 4.625 -1.625 4.625 -2 2 C-1.34 1.34 -0.68 0.68 0 0 Z " fill="#6564AA" transform="translate(296,109)"/>
<path d="M0 0 C0.99 0 1.98 0 3 0 C2.33989524 2.84550012 1.48275034 5.52325999 0.4375 8.25 C0.16808594 8.95640625 -0.10132813 9.6628125 -0.37890625 10.390625 C-0.58386719 10.92171875 -0.78882813 11.4528125 -1 12 C-3 9 -3 9 -3 5 C-2.34 4.67 -1.68 4.34 -1 4 C-0.34786708 1.97536745 -0.34786708 1.97536745 0 0 Z " fill="#444494" transform="translate(194,105)"/>
<path d="M0 0 C0.66 0 1.32 0 2 0 C0.58707905 4.8274799 -1.42974154 8.7162359 -4 13 C-4.33 13 -4.66 13 -5 13 C-5 11.35 -5 9.7 -5 8 C-4.01 7.67 -3.02 7.34 -2 7 C-2 5.35 -2 3.7 -2 2 C-1.34 2 -0.68 2 0 2 C0 1.34 0 0.68 0 0 Z " fill="#E75354" transform="translate(241,39)"/>
<path d="M0 0 C0.33 0.66 0.66 1.32 1 2 C0.67 2.66 0.34 3.32 0 4 C-0.66 4 -1.32 4 -2 4 C-2 4.66 -2 5.32 -2 6 C-2.99 6 -3.98 6 -5 6 C-5 6.66 -5 7.32 -5 8 C-6.98 8.66 -8.96 9.32 -11 10 C-7.50640535 6.40365256 -3.88901869 3.16548033 0 0 Z " fill="#E74C4A" transform="translate(202,37)"/>
<path d="M0 0 C2.1875 0.875 2.1875 0.875 4.1875 2.875 C0.9044902 4.5165049 -2.23795033 3.39388624 -5.8125 2.875 C-5.8125 3.535 -5.8125 4.195 -5.8125 4.875 C-7.1325 4.545 -8.4525 4.215 -9.8125 3.875 C-3.57809546 -0.15902647 -3.57809546 -0.15902647 0 0 Z " fill="#E55556" transform="translate(212.8125,32.125)"/>
<path d="M0 0 C0.33 0.99 0.66 1.98 1 3 C-2.3 3.66 -5.6 4.32 -9 5 C-9 4.34 -9 3.68 -9 3 C-6.04341306 0.15291628 -4.05047276 -0.3375394 0 0 Z " fill="#070774" transform="translate(222,86)"/>
<path d="M0 0 C3.63 0 7.26 0 11 0 C8.6870518 2.3129482 7.52095125 2.49580975 4.375 3.125 C3.55773437 3.29257812 2.74046875 3.46015625 1.8984375 3.6328125 C0.95871094 3.81457031 0.95871094 3.81457031 0 4 C0 2.68 0 1.36 0 0 Z " fill="#D66866" transform="translate(291,25)"/>
<path d="M0 0 C0.99 0.33 1.98 0.66 3 1 C3.33 1.99 3.66 2.98 4 4 C3 5 3 5 0.4375 5.0625 C-0.7690625 5.0315625 -0.7690625 5.0315625 -2 5 C-2 4.34 -2 3.68 -2 3 C-2.99 3 -3.98 3 -5 3 C-5 2.34 -5 1.68 -5 1 C-2.525 1.495 -2.525 1.495 0 2 C0 1.34 0 0.68 0 0 Z " fill="#1E1B76" transform="translate(21,126)"/>
<path d="M0 0 C5.75 0.75 5.75 0.75 8 3 C7.34 3 6.68 3 6 3 C6 3.66 6 4.32 6 5 C4.35 4.67 2.7 4.34 1 4 C0.67 2.68 0.34 1.36 0 0 Z " fill="#2B2A82" transform="translate(9,123)"/>
<path d="M0 0 C2 1 2 1 3 3 C-0.08559304 5.26881841 -1.42209376 6.05451946 -5.3125 5.6875 C-6.199375 5.460625 -7.08625 5.23375 -8 5 C-2.6 1.4 -2.6 1.4 0 0 Z " fill="#6A67A1" transform="translate(209,119)"/>
<path d="M0 0 C0.33 0.66 0.66 1.32 1 2 C1.99 1.67 2.98 1.34 4 1 C4 4.3 4 7.6 4 11 C3.67 11 3.34 11 3 11 C2.67 8.69 2.34 6.38 2 4 C1.01 4.66 0.02 5.32 -1 6 C-1 5.34 -1 4.68 -1 4 C-1.66 3.67 -2.32 3.34 -3 3 C-2.01 2.01 -1.02 1.02 0 0 Z " fill="#7A77B6" transform="translate(183,111)"/>
<path d="M0 0 C0.66 0 1.32 0 2 0 C1.5206753 4.31392226 0.2542015 6.16569547 -3 9 C-3.75 7.3125 -3.75 7.3125 -4 5 C-2.1875 2.25 -2.1875 2.25 0 0 Z " fill="#66649F" transform="translate(330,99)"/>
<path d="M0 0 C0.66 1.32 1.32 2.64 2 4 C1.34 4 0.68 4 0 4 C-0.66 5.32 -1.32 6.64 -2 8 C-2.99 8 -3.98 8 -5 8 C-4.67 6.68 -4.34 5.36 -4 4 C-3.34 4 -2.68 4 -2 4 C-2 3.01 -2 2.02 -2 1 C-1.34 0.67 -0.68 0.34 0 0 Z " fill="#030176" transform="translate(230,101)"/>
<path d="M0 0 C0.99 0 1.98 0 3 0 C3.625 2.875 3.625 2.875 4 6 C3.34 6.66 2.68 7.32 2 8 C2 6.68 2 5.36 2 4 C0.35 4.33 -1.3 4.66 -3 5 C-2.67 4.01 -2.34 3.02 -2 2 C-1.34 2 -0.68 2 0 2 C0 1.34 0 0.68 0 0 Z " fill="#12127F" transform="translate(253,101)"/>
<path d="M0 0 C2 3.75 2 3.75 2 6 C2.33 5.34 2.66 4.68 3 4 C3.66 4 4.32 4 5 4 C3.92598892 6.91517292 3.22189824 8.77810176 1 11 C1 9.68 1 8.36 1 7 C0.34 6.67 -0.32 6.34 -1 6 C-1 2 -1 2 0 0 Z " fill="#4B4D9A" transform="translate(235,88)"/>
<path d="M0 0 C0.78375 0.04125 1.5675 0.0825 2.375 0.125 C2.375 1.115 2.375 2.105 2.375 3.125 C-0.95833333 6.125 -0.95833333 6.125 -3.625 6.125 C-4.25 4.25 -4.25 4.25 -4.625 2.125 C-2.625 0.125 -2.625 0.125 0 0 Z " fill="#3C3B94" transform="translate(207.625,91.875)"/>
<path d="M0 0 C0.6875 1.8125 0.6875 1.8125 1 4 C-0.4375 5.75 -0.4375 5.75 -2 7 C-2 5.02 -2 3.04 -2 1 C-2.61875 1.20625 -3.2375 1.4125 -3.875 1.625 C-4.57625 1.74875 -5.2775 1.8725 -6 2 C-6.66 1.34 -7.32 0.68 -8 0 C-4.71023192 -1.09658936 -3.28696233 -0.79953138 0 0 Z " fill="#6969A7" transform="translate(269,85)"/>
<path d="M0 0 C0.79921875 0.01804688 1.5984375 0.03609375 2.421875 0.0546875 C3.02515625 0.07789063 3.6284375 0.10109375 4.25 0.125 C2.8125 1.6875 2.8125 1.6875 0.25 3.125 C-2.80380927 3.09346324 -5.74653222 2.65766629 -8.75 2.125 C-5.68753253 0.34090198 -3.52920727 -0.10380021 0 0 Z " fill="#E86266" transform="translate(230.75,52.875)"/>
<path d="M0 0 C0 0.66 0 1.32 0 2 C-1.4317616 2.69937202 -2.87067032 3.38412718 -4.3125 4.0625 C-5.51326172 4.63677734 -5.51326172 4.63677734 -6.73828125 5.22265625 C-9 6 -9 6 -12 5 C-11.34 5 -10.68 5 -10 5 C-10 4.34 -10 3.68 -10 3 C-9.01 3 -8.02 3 -7 3 C-7 2.34 -7 1.68 -7 1 C-4.50935112 0.31292445 -2.62113708 0 0 0 Z " fill="#E65C5C" transform="translate(260,6)"/>
<path d="M0 0 C0.33 0.99 0.66 1.98 1 3 C1.99 3 2.98 3 4 3 C4.33 4.98 4.66 6.96 5 9 C4.01 9.33 3.02 9.66 2 10 C0 8 0 8 -0.1953125 6.0546875 C-0.13020833 4.03645833 -0.06510417 2.01822917 0 0 Z " fill="#05036A" transform="translate(271,113)"/>
<path d="M0 0 C0.66 0.66 1.32 1.32 2 2 C1.6875 3.875 1.6875 3.875 1 6 C0.7834375 7.0828125 0.7834375 7.0828125 0.5625 8.1875 C0.376875 8.785625 0.19125 9.38375 0 10 C-0.99 10.495 -0.99 10.495 -2 11 C-2 8.69 -2 6.38 -2 4 C-2.66 4 -3.32 4 -4 4 C-4 3.34 -4 2.68 -4 2 C-2.68 2 -1.36 2 0 2 C0 1.34 0 0.68 0 0 Z " fill="#040275" transform="translate(301,107)"/>
<path d="M0 0 C1.04449911 3.13349732 0.93423645 3.98968256 0 7 C-1.32 7.33 -2.64 7.66 -4 8 C-4 6.68 -4 5.36 -4 4 C-3.34 4 -2.68 4 -2 4 C-1.34 2.68 -0.68 1.36 0 0 Z " fill="#020181" transform="translate(103,107)"/>
<path d="M0 0 C0.86625 0.4640625 0.86625 0.4640625 1.75 0.9375 C3.84294184 1.92583364 5.74535275 2.5168613 8 3 C6.68 4.32 5.36 5.64 4 7 C3.67 6.34 3.34 5.68 3 5 C0.47266765 4.34444881 0.47266765 4.34444881 -2 4 C-1.34 2.68 -0.68 1.36 0 0 Z " fill="#454499" transform="translate(278,99)"/>
<path d="M0 0 C1.32 0.66 2.64 1.32 4 2 C3.01 4.97 2.02 7.94 1 11 C0.67 11 0.34 11 0 11 C0 8.69 0 6.38 0 4 C-0.99 3.67 -1.98 3.34 -3 3 C-2.01 2.01 -1.02 1.02 0 0 Z " fill="#03026B" transform="translate(120,97)"/>
<path d="M0 0 C0.33 0 0.66 0 1 0 C1 1.98 1 3.96 1 6 C-0.96466413 7.06775224 -2.96855359 8.06553465 -5 9 C-5.66 8.67 -6.32 8.34 -7 8 C-5.85760183 6.66372225 -4.71098945 5.33104612 -3.5625 4 C-2.92441406 3.2575 -2.28632812 2.515 -1.62890625 1.75 C-1.09136719 1.1725 -0.55382812 0.595 0 0 Z " fill="#4B4A9B" transform="translate(82,109)"/>
<path d="M0 0 C0 0.66 0 1.32 0 2 C0.66 2 1.32 2 2 2 C1.34 3.32 0.68 4.64 0 6 C-0.33 5.34 -0.66 4.68 -1 4 C-1.99 4 -2.98 4 -4 4 C-4.33 4.66 -4.66 5.32 -5 6 C-4.625 3.5625 -4.625 3.5625 -4 1 C-2 0 -2 0 0 0 Z " fill="#F11618" transform="translate(145,41)"/>
<path d="M0 0 C0.33 0.66 0.66 1.32 1 2 C0.09507812 2.09087891 0.09507812 2.09087891 -0.828125 2.18359375 C-2.02695313 2.30927734 -2.02695313 2.30927734 -3.25 2.4375 C-4.03890625 2.51871094 -4.8278125 2.59992187 -5.640625 2.68359375 C-7.82364639 2.97634993 -9.8773182 3.42064419 -12 4 C-11.67 3.01 -11.34 2.02 -11 1 C-7.02245039 -0.80797709 -4.17991973 -1.43311534 0 0 Z " fill="#E3494B" transform="translate(172,30)"/>
<path d="M0 0 C-1.32 1.65 -2.64 3.3 -4 5 C-5.32 4.67 -6.64 4.34 -8 4 C-8 3.01 -8 2.02 -8 1 C-5.29120665 -0.35439668 -2.99066732 -0.06501451 0 0 Z " fill="#E81C1D" transform="translate(218,1)"/>
<path d="M0 0 C0.66 0 1.32 0 2 0 C2.625 2.8125 2.625 2.8125 3 6 C2.01 7.485 2.01 7.485 1 9 C0.34 9 -0.32 9 -1 9 C-0.67 6.03 -0.34 3.06 0 0 Z " fill="#302D8D" transform="translate(107,60)"/>
<path d="M0 0 C5.28 0 10.56 0 16 0 C16 0.33 16 0.66 16 1 C15.16855469 1.04898437 14.33710938 1.09796875 13.48046875 1.1484375 C12.39378906 1.22320312 11.30710938 1.29796875 10.1875 1.375 C9.10855469 1.44460938 8.02960938 1.51421875 6.91796875 1.5859375 C3.81373814 1.81195733 3.81373814 1.81195733 1 4 C0.67 2.68 0.34 1.36 0 0 Z " fill="#F5777A" transform="translate(204,13)"/>
<path d="M0 0 C1.32 0 2.64 0 4 0 C4.33 1.98 4.66 3.96 5 6 C3.35 5.67 1.7 5.34 0 5 C0 3.35 0 1.7 0 0 Z " fill="#1D1C80" transform="translate(3,113)"/>
<path d="M0 0 C1.65 0 3.3 0 5 0 C5 0.66 5 1.32 5 2 C2.4385343 4.29648649 1.52032428 5 -2 5 C-1.34 3.35 -0.68 1.7 0 0 Z " fill="#555390" transform="translate(246,94)"/>
<path d="M0 0 C0.66 0 1.32 0 2 0 C2.33 1.65 2.66 3.3 3 5 C1.35 5.66 -0.3 6.32 -2 7 C-1.125 1.125 -1.125 1.125 0 0 Z " fill="#C8C6D6" transform="translate(149,140)"/>
<path d="M0 0 C1.32 0 2.64 0 4 0 C3.25 1.9375 3.25 1.9375 2 4 C-0.125 4.75 -0.125 4.75 -2 5 C-1.125 1.125 -1.125 1.125 0 0 Z " fill="#47468D" transform="translate(178,115)"/>
<path d="M0 0 C2.23639141 3.35458711 3.17118585 6.06313281 4 10 C3.046875 12.22265625 3.046875 12.22265625 2 14 C1.66179834 12.4176994 1.32964061 10.83410625 1 9.25 C0.814375 8.36828125 0.62875 7.4865625 0.4375 6.578125 C0 4 0 4 0 0 Z " fill="#6F6EB0" transform="translate(10,99)"/>
<path d="M0 0 C0.66 0 1.32 0 2 0 C2.33 1.32 2.66 2.64 3 4 C2.34 4 1.68 4 1 4 C1.33 4.99 1.66 5.98 2 7 C0.68 7.33 -0.64 7.66 -2 8 C-1.125 1.125 -1.125 1.125 0 0 Z " fill="#0C0D72" transform="translate(150,98)"/>
<path d="M0 0 C-0.66 0 -1.32 0 -2 0 C-2 0.66 -2 1.32 -2 2 C-4.64 2.33 -7.28 2.66 -10 3 C-10 2.34 -10 1.68 -10 1 C-3.375 -1.125 -3.375 -1.125 0 0 Z " fill="#060368" transform="translate(72,49)"/>
<path d="M0 0 C0.33 1.32 0.66 2.64 1 4 C-2 6 -2 6 -4.1875 5.625 C-4.785625 5.41875 -5.38375 5.2125 -6 5 C-4.02 3.35 -2.04 1.7 0 0 Z " fill="#EA3E44" transform="translate(240,29)"/>
<path d="M0 0 C0 1.65 0 3.3 0 5 C-0.66 5 -1.32 5 -2 5 C-2.33 5.66 -2.66 6.32 -3 7 C-3.33 6.01 -3.66 5.02 -4 4 C-3.34 4 -2.68 4 -2 4 C-2 3.01 -2 2.02 -2 1 C-3.32 0.67 -4.64 0.34 -6 0 C-3 -1 -3 -1 0 0 Z " fill="#CAC7D6" transform="translate(140,141)"/>
<path d="M0 0 C0.66 0.99 1.32 1.98 2 3 C1.34 3.66 0.68 4.32 0 5 C-2.0625 4.8125 -2.0625 4.8125 -4 4 C-4.33 3.01 -4.66 2.02 -5 1 C-3.35 0.67 -1.7 0.34 0 0 Z " fill="#3F3F98" transform="translate(8,117)"/>
<path d="M0 0 C0 0.33 0 0.66 0 1 C-1.98 1 -3.96 1 -6 1 C-6 1.66 -6 2.32 -6 3 C-5.34 3.33 -4.68 3.66 -4 4 C-5.98 4.99 -5.98 4.99 -8 6 C-8 5.01 -8 4.02 -8 3 C-8.66 2.67 -9.32 2.34 -10 2 C-6.3558226 -0.4294516 -4.28758728 -0.16179575 0 0 Z " fill="#8683BF" transform="translate(14,94)"/>
<path d="M0 0 C1.32 0 2.64 0 4 0 C3.67 1.65 3.34 3.3 3 5 C1.68 4.67 0.36 4.34 -1 4 C-0.67 2.68 -0.34 1.36 0 0 Z " fill="#121180" transform="translate(200,95)"/>
<path d="M0 0 C2.4375 1.25 2.4375 1.25 3.4375 4.25 C2.7775 4.91 2.1175 5.57 1.4375 6.25 C1.19 5.63125 0.9425 5.0125 0.6875 4.375 C-0.76878639 1.89931313 -1.94062506 1.29874998 -4.5625 0.25 C-2.5625 -0.75 -2.5625 -0.75 0 0 Z " fill="#6969A8" transform="translate(134.5625,85.75)"/>
<path d="M0 0 C2.0625 0.4375 2.0625 0.4375 4 1 C2.25 5.875 2.25 5.875 0 7 C-0.38133299 5.0085944 -0.71325582 3.00720923 -1 1 C-0.67 0.67 -0.34 0.34 0 0 Z " fill="#EA302D" transform="translate(195,30)"/>
<path d="M0 0 C0.66 1.32 1.32 2.64 2 4 C1.01 4.99 0.02 5.98 -1 7 C-1.99 6.34 -2.98 5.68 -4 5 C-2.68 3.35 -1.36 1.7 0 0 Z " fill="#6868A3" transform="translate(112,105)"/>
<path d="M0 0 C-1.75 4.875 -1.75 4.875 -4 6 C-4.66 4.68 -5.32 3.36 -6 2 C-3 0 -3 0 0 0 Z " fill="#353291" transform="translate(202,99)"/>
<path d="M0 0 C0.33 0 0.66 0 1 0 C1.36923077 5.41538462 1.36923077 5.41538462 -0.5 8.375 C-0.995 8.91125 -1.49 9.4475 -2 10 C-3.39195915 5.82412255 -1.82323219 3.86525224 0 0 Z " fill="#5554A3" transform="translate(104,96)"/>
<path d="M0 0 C0.66 0 1.32 0 2 0 C2.33 0.99 2.66 1.98 3 3 C1.35 4.32 -0.3 5.64 -2 7 C-1.125 1.125 -1.125 1.125 0 0 Z " fill="#211F82" transform="translate(288,94)"/>
<path d="M0 0 C1.9375 0.75 1.9375 0.75 4 2 C4.75 4.125 4.75 4.125 5 6 C4.01 6.495 4.01 6.495 3 7 C3 6.34 3 5.68 3 5 C2.01 4.67 1.02 4.34 0 4 C0 2.68 0 1.36 0 0 Z " fill="#3C3A8D" transform="translate(88,89)"/>
<path d="M0 0 C2.375 0.25 2.375 0.25 5 1 C6.3125 3.0625 6.3125 3.0625 7 5 C6.01 5.99 5.02 6.98 4 8 C3.67 5.69 3.34 3.38 3 1 C2.01 0.67 1.02 0.34 0 0 Z " fill="#7C7CB4" transform="translate(313,86)"/>
<path d="M0 0 C-1.28965176 1.37562854 -2.62689293 2.70766393 -4 4 C-4.66 4 -5.32 4 -6 4 C-6.33 2.68 -6.66 1.36 -7 0 C-4.3333581 -1.33332095 -2.83319697 -0.67102033 0 0 Z " fill="#EF3A38" transform="translate(158,36)"/>
<path d="M0 0 C0.99 0.33 1.98 0.66 3 1 C3 2.65 3 4.3 3 6 C3.66 6.33 4.32 6.66 5 7 C1.125 6.125 1.125 6.125 0 5 C-0.04063832 3.33382885 -0.042721 1.66611905 0 0 Z " fill="#040179" transform="translate(248,117)"/>
<path d="M0 0 C0 0.99 0 1.98 0 3 C-1.65 3.66 -3.3 4.32 -5 5 C-4.67 4.01 -4.34 3.02 -4 2 C-4.66 1.67 -5.32 1.34 -6 1 C-4 0 -4 0 0 0 Z " fill="#625F9F" transform="translate(261,119)"/>
<path d="M0 0 C1.0625 1.875 1.0625 1.875 2 4 C1.67 4.66 1.34 5.32 1 6 C0.34 6 -0.32 6 -1 6 C-1.33 6.99 -1.66 7.98 -2 9 C-2.33 8.34 -2.66 7.68 -3 7 C-2.06421005 4.64018187 -1.06652192 2.30368736 0 0 Z " fill="#5C5CA4" transform="translate(100,105)"/>
<path d="M0 0 C0.99 0.33 1.98 0.66 3 1 C3 2.32 3 3.64 3 5 C1.35 4.67 -0.3 4.34 -2 4 C-1.34 2.68 -0.68 1.36 0 0 Z " fill="#12137F" transform="translate(303,108)"/>
<path d="M0 0 C1 2 1 2 0.0625 5.125 C-0.288125 6.07375 -0.63875 7.0225 -1 8 C-2.32 7.67 -3.64 7.34 -5 7 C-3.35 4.69 -1.7 2.38 0 0 Z " fill="#4F4D9B" transform="translate(302,101)"/>
<path d="M0 0 C0.66 0 1.32 0 2 0 C2.625 1.875 2.625 1.875 3 4 C2.34 4.66 1.68 5.32 1 6 C0.01 6 -0.98 6 -2 6 C-1.49396008 3.83125748 -1.00016187 2.00032373 0 0 Z " fill="#030180" transform="translate(156,105)"/>
<path d="M0 0 C0.78375 0.185625 1.5675 0.37125 2.375 0.5625 C4.97089775 1.25962266 4.97089775 1.25962266 7 0 C6.67 1.98 6.34 3.96 6 6 C5.67 5.34 5.34 4.68 5 4 C4.01 4 3.02 4 2 4 C2 3.01 2 2.02 2 1 C1.34 0.67 0.68 0.34 0 0 Z " fill="#8789C5" transform="translate(182,89)"/>
<path d="M0 0 C1.32 0 2.64 0 4 0 C4 1.32 4 2.64 4 4 C2.35 4.33 0.7 4.66 -1 5 C-0.67 3.35 -0.34 1.7 0 0 Z " fill="#232180" transform="translate(112,84)"/>
<path d="M0 0 C1.32 0.33 2.64 0.66 4 1 C3.67 2.32 3.34 3.64 3 5 C2.01 4.34 1.02 3.68 0 3 C-0.99 3.495 -0.99 3.495 -2 4 C-1.34 2.68 -0.68 1.36 0 0 Z " fill="#1F1D7D" transform="translate(46,59)"/>
<path d="M0 0 C0.66 0.33 1.32 0.66 2 1 C2.625 3.5625 2.625 3.5625 3 6 C1.35 5.67 -0.3 5.34 -2 5 C-1.34 3.35 -0.68 1.7 0 0 Z " fill="#C0BCCD" transform="translate(75,140)"/>
<path d="M0 0 C0.99 0.33 1.98 0.66 3 1 C2.67 3.31 2.34 5.62 2 8 C0.23537317 4.91190305 0 3.76687864 0 0 Z " fill="#393995" transform="translate(302,112)"/>
<path d="M0 0 C0.66 0 1.32 0 2 0 C2 1.65 2 3.3 2 5 C0.35 5 -1.3 5 -3 5 C-1.125 1.125 -1.125 1.125 0 0 Z " fill="#43418C" transform="translate(4,97)"/>
<path d="M0 0 C0.66 0 1.32 0 2 0 C2 0.99 2 1.98 2 3 C1.360625 3.103125 0.72125 3.20625 0.0625 3.3125 C-0.618125 3.539375 -1.29875 3.76625 -2 4 C-2.33 4.99 -2.66 5.98 -3 7 C-3.66 6.67 -4.32 6.34 -5 6 C-3.38405168 3.95880212 -1.7143618 1.95927063 0 0 Z " fill="#64629F" transform="translate(122,93)"/>
<path d="M0 0 C0.99 0 1.98 0 3 0 C2.67 2.31 2.34 4.62 2 7 C0.68 5.68 -0.64 4.36 -2 3 C-1.34 3 -0.68 3 0 3 C0 2.01 0 1.02 0 0 Z " fill="#04027A" transform="translate(255,63)"/>
<path d="M0 0 C1.98 0.66 3.96 1.32 6 2 C4.68 2.99 3.36 3.98 2 5 C2 4.01 2 3.02 2 2 C0.35 2.33 -1.3 2.66 -3 3 C-2.01 2.01 -1.02 1.02 0 0 Z " fill="#5858A0" transform="translate(53,53)"/>
</svg>
